<svg width="16" height="16" viewBox="0 0 16 16" fill="none" xmlns="http://www.w3.org/2000/svg">
<path d="M14.3635 11.3638C14.1759 11.5513 13.9216 11.6566 13.6565 11.6566C13.3913 11.6566 13.137 11.5513 12.9495 11.3638L7.99946 6.41379L3.04946 11.3638C2.86086 11.5459 2.60826 11.6467 2.34606 11.6445C2.08386 11.6422 1.83305 11.537 1.64764 11.3516C1.46223 11.1662 1.35707 10.9154 1.35479 10.6532C1.35251 10.391 1.4533 10.1384 1.63546 9.94979L7.29246 4.29279C7.47999 4.10532 7.7343 4 7.99946 4C8.26463 4 8.51893 4.10532 8.70646 4.29279L14.3635 9.94979C14.5509 10.1373 14.6562 10.3916 14.6562 10.6568C14.6562 10.922 14.5509 11.1763 14.3635 11.3638Z" fill="#AEAEAE"/>
</svg>
