<svg width="16" height="20" viewBox="0 0 16 20" fill="none" xmlns="http://www.w3.org/2000/svg">
<path d="M9.25364 10.9319L9.25364 10.9319L9.25771 10.9308L13.5146 9.82117L14.6925 9.51413L13.6518 8.88286L1.29658 1.38854L0.514799 0.914328V1.82869V15.1222V16.1133L1.32563 15.5434L5.0021 12.9592C5.06495 12.9175 5.12985 12.8991 5.19747 12.8991L5.22837 12.8992C5.23573 12.8993 5.23957 12.8995 5.24152 12.8996C5.24164 12.8996 5.24175 12.8996 5.24185 12.8996L5.25048 12.9014L5.26032 12.9031C5.35953 12.9198 5.42186 12.9671 5.4576 13.0208L5.45759 13.0208L5.45954 13.0237L9.40179 18.8619L9.66368 19.2497L10.0747 19.0259L12.6751 17.6096L13.1726 17.3386L12.8554 16.8692L9.08259 11.2866C9.04284 11.2238 9.0368 11.1542 9.06125 11.0917C9.09513 11.0181 9.17027 10.9529 9.25364 10.9319Z" fill="#FEFEFE" stroke="#333333"/>
</svg>
