<svg width="60" height="61" viewBox="0 0 60 61" fill="none" xmlns="http://www.w3.org/2000/svg">
<path opacity="0.2" d="M30 60C46.5685 60 60 46.5685 60 30C60 13.4315 46.5685 0 30 0C13.4315 0 0 13.4315 0 30C0 46.5685 13.4315 60 30 60Z" fill="#9A33CC"/>
<path fill-rule="evenodd" clip-rule="evenodd" d="M31.5524 22.2901C33.8219 24.1487 35.2703 26.9728 35.2703 30.1351C35.2703 33.2975 33.8219 36.1215 31.5524 37.9802C32.5706 38.4106 33.6899 38.6486 34.8649 38.6486C39.5667 38.6486 43.3784 34.837 43.3784 30.1351C43.3784 25.4333 39.5667 21.6216 34.8649 21.6216C33.6899 21.6216 32.5706 21.8596 31.5524 22.2901ZM30 21.2417C28.5559 20.4501 26.8981 20 25.1351 20C19.5377 20 15 24.5377 15 30.1351C15 35.7326 19.5377 40.2703 25.1351 40.2703C26.8981 40.2703 28.556 39.8201 30 39.0285C31.444 39.8201 33.1019 40.2703 34.8649 40.2703C40.4623 40.2703 45 35.7326 45 30.1351C45 24.5377 40.4623 20 34.8649 20C33.1019 20 31.444 20.4501 30 21.2417Z" fill="#9A33CC"/>
</svg>
