<svg width="12" height="12" viewBox="0 0 12 12" fill="none" xmlns="http://www.w3.org/2000/svg">
<path fill-rule="evenodd" clip-rule="evenodd" d="M3.186 4.9575H6.4215V6.672H3.186V10.2855H5.22675C6.0345 10.2855 6.69525 10.1768 7.20975 9.95775C7.72425 9.7395 8.12775 9.43725 8.421 9.05025C8.72093 8.6478 8.92511 8.18225 9.018 7.689C9.12636 7.13261 9.17912 6.56683 9.1755 6C9.17912 5.43317 9.12636 4.86739 9.018 4.311C8.92521 3.81772 8.72102 3.35214 8.421 2.94975C8.12775 2.56275 7.7235 2.2605 7.20975 2.04225C6.69525 1.82325 6.0345 1.7145 5.22675 1.7145H3.186V4.95825V4.9575ZM1.1115 6.672H0V4.95825H1.1115V0H6.02325C6.93075 0 7.716 0.1575 8.37975 0.47025C9.0435 0.7845 9.585 1.21275 10.0057 1.7565C10.4257 2.2995 10.7385 2.9355 10.9432 3.66375C11.148 4.392 11.25 5.17125 11.25 6C11.2551 6.78917 11.1517 7.57529 10.9425 8.33625C10.7385 9.06375 10.4257 9.7005 10.005 10.2435C9.585 10.7873 9.0435 11.2155 8.37975 11.5297C7.716 11.8432 6.93 12 6.02325 12H1.1115V6.672Z" fill="#FEFEFE"/>
</svg>
