<svg width="30" height="30" viewBox="0 0 30 30" fill="none" xmlns="http://www.w3.org/2000/svg">
<path fill-rule="evenodd" clip-rule="evenodd" d="M6.06391 22.3877C5.66273 22.269 5.29669 22.0578 4.99666 21.772C4.69664 21.4862 4.47143 21.1342 4.34006 20.7456C3.58935 18.7371 3.36692 10.3503 4.81273 8.69462C5.29392 8.15603 5.9733 7.82443 6.7034 7.7718C10.5821 7.36467 22.5656 7.41896 23.9419 7.90751C24.329 8.0301 24.6827 8.23663 24.9764 8.5116C25.2701 8.78658 25.4963 9.12288 25.6379 9.4953C26.4582 11.5717 26.486 19.1171 25.5267 21.112C25.2723 21.6313 24.8463 22.0519 24.3173 22.3062C22.8714 23.0119 7.98239 22.9983 6.06391 22.3877ZM12.2225 18.4521L19.1735 14.9237L12.2225 11.3681V18.4521Z" fill="#F40000"/>
</svg>
