<svg width="21" height="31" viewBox="0 0 21 31" fill="none" xmlns="http://www.w3.org/2000/svg">
<path fill-rule="evenodd" clip-rule="evenodd" d="M2.61822 18.4878L0 19.9994L0.929791 21.6099L1.81246 21.1003C1.7024 21.8754 1.69701 22.6669 1.80054 23.4532C2.04994 25.3476 2.91744 27.1067 4.26851 28.4578C5.61957 29.8088 7.3787 30.6763 9.27305 30.9257C11.1674 31.1751 13.0911 30.7925 14.7458 29.8371C16.4005 28.8818 17.6938 27.4071 18.425 25.6419C19.1562 23.8766 19.2844 21.9194 18.7899 20.0738C18.2954 18.2282 17.2057 16.5974 15.6898 15.4342C14.1895 14.283 12.3547 13.6536 10.4646 13.6408V13.6401C9.37265 13.6401 8.31118 13.2798 7.44485 12.6151C6.57852 11.9503 5.95576 11.0183 5.67313 9.9635C5.3905 8.90873 5.46382 7.79017 5.8817 6.78132C6.29958 5.77246 7.03868 4.92968 7.98437 4.38369C8.93005 3.8377 10.0295 3.61901 11.1121 3.76154C12.1947 3.90407 13.2001 4.39986 13.9722 5.17201C14.7444 5.94415 15.2402 6.94951 15.3827 8.03215C15.412 8.25466 15.426 8.47788 15.4251 8.70033L15.059 8.06617L13.4485 8.99596L15.7219 12.9335C15.9787 13.3783 16.5473 13.5306 16.992 13.2739L17.7071 12.861L17.9815 13.0195C18.0687 12.8684 18.1511 12.7152 18.2287 12.5599L20.9296 11.0005L19.9998 9.39006L19.0528 9.93683C19.168 9.14982 19.1752 8.34565 19.0701 7.5467C18.8207 5.65235 17.9532 3.89323 16.6021 2.54216C15.251 1.1911 13.4919 0.323592 11.5976 0.0741954C9.7032 -0.175199 7.7795 0.207449 6.12478 1.1628C4.47007 2.11814 3.17683 3.5928 2.44564 5.35805C1.71445 7.12331 1.58617 9.0805 2.08069 10.9261C2.57522 12.7717 3.66491 14.4025 5.18077 15.5657C6.68111 16.7169 8.51595 17.3463 10.406 17.3591V17.3598C11.498 17.3598 12.5594 17.7201 13.4257 18.3849C14.2921 19.0496 14.9148 19.9817 15.1975 21.0364C15.4801 22.0912 15.4068 23.2098 14.9889 24.2186C14.571 25.2275 13.8319 26.0702 12.8862 26.6162C11.9406 27.1622 10.8411 27.3809 9.7585 27.2384C8.67586 27.0959 7.6705 26.6001 6.89836 25.8279C6.12621 25.0558 5.63042 24.0504 5.48789 22.9678C5.45422 22.712 5.4407 22.4553 5.44691 22.1999L5.87063 22.9338L7.48107 22.004L5.20771 18.0664C5.08441 17.8528 4.88132 17.697 4.64313 17.6332C4.40494 17.5694 4.15115 17.6028 3.93759 17.7261L3.19306 18.1559L2.88914 17.9805C2.79302 18.1469 2.70269 18.3162 2.61822 18.4878Z" fill="#FF9D43"/>
</svg>
