<svg width="21" height="31" viewBox="0 0 21 31" fill="none" xmlns="http://www.w3.org/2000/svg">
<path fill-rule="evenodd" clip-rule="evenodd" d="M2.618 18.4882L0 19.9998L0.929791 21.6102L1.81241 21.1006C1.7024 21.8757 1.69703 22.667 1.80054 23.4532C2.04994 25.3476 2.91744 27.1067 4.26851 28.4578C5.61957 29.8088 7.3787 30.6763 9.27305 30.9257C11.1674 31.1751 13.0911 30.7925 14.7458 29.8371C16.4005 28.8818 17.6938 27.4071 18.425 25.6419C19.1562 23.8766 19.2844 21.9194 18.7899 20.0738C18.2954 18.2282 17.2057 16.5974 15.6898 15.4342C14.1776 14.2738 12.3254 13.6436 10.4195 13.6406C9.34343 13.6308 8.29923 13.2714 7.44484 12.6158C6.57852 11.951 5.95575 11.019 5.67312 9.96419C5.3905 8.90941 5.46381 7.79086 5.88169 6.782C6.29958 5.77314 7.03867 4.93036 7.98436 4.38437C8.93004 3.83838 10.0295 3.61969 11.1121 3.76223C12.1947 3.90476 13.2001 4.40055 13.9722 5.17269C14.7444 5.94484 15.2402 6.95019 15.3827 8.03283C15.412 8.25524 15.426 8.47836 15.4251 8.7007L15.059 8.06654L13.4485 8.99633L15.7219 12.9339C15.9787 13.3786 16.5473 13.531 16.992 13.2742L17.7068 12.8616L17.9814 13.0202C18.0687 12.869 18.1512 12.7156 18.2289 12.5601L20.9296 11.0009L19.9998 9.39043L19.0528 9.93717C19.168 9.15027 19.1752 8.34622 19.0701 7.54738C18.8207 5.65303 17.9532 3.89391 16.6021 2.54285C15.251 1.19178 13.4919 0.324277 11.5975 0.0748803C9.7032 -0.174514 7.77949 0.208133 6.12478 1.16348C4.47006 2.11883 3.17683 3.59348 2.44563 5.35874C1.71444 7.12399 1.58616 9.08119 2.08068 10.9268C2.57521 12.7724 3.6649 14.4032 5.18076 15.5664C6.69307 16.7268 8.54523 17.357 10.4512 17.36C11.5272 17.3698 12.5714 17.7293 13.4257 18.3849C14.2921 19.0496 14.9148 19.9817 15.1975 21.0364C15.4801 22.0912 15.4068 23.2098 14.9889 24.2186C14.571 25.2275 13.8319 26.0702 12.8862 26.6162C11.9406 27.1622 10.8411 27.3809 9.7585 27.2384C8.67586 27.0959 7.6705 26.6001 6.89836 25.8279C6.12621 25.0558 5.63042 24.0504 5.48789 22.9678C5.45423 22.7121 5.44071 22.4555 5.4469 22.2002L5.87063 22.9341L7.48107 22.0043L5.20771 18.0667C5.08441 17.8532 4.88133 17.6973 4.64313 17.6335C4.40494 17.5697 4.15115 17.6031 3.93759 17.7264L3.19334 18.1561L2.88914 17.9805C2.79294 18.1471 2.70254 18.3165 2.618 18.4882Z" fill="#FF9D43"/>
</svg>
