<svg width="15" height="28" viewBox="0 0 15 28" fill="none" xmlns="http://www.w3.org/2000/svg">
<path d="M9.08577 14.794L9.08578 14.794L9.09097 14.7921L13.2483 13.2306L14.0356 12.9349L13.4023 12.3814L1.33635 1.83571L0.502749 1.10715V2.21426V20.9203V22.1451L1.36325 21.2736L4.95409 17.6369C5.01998 17.5737 5.06035 17.5705 5.07581 17.5705L5.0924 17.5705L5.09626 17.5705L5.1021 17.5719C5.14369 17.582 5.22329 17.6241 5.29198 17.7728L5.29197 17.7728L5.29316 17.7754L9.14314 25.9907L9.41142 26.5631L9.90876 26.1728L12.4484 24.1798L12.763 23.9329L12.5931 23.5708L8.90725 15.7123C8.83059 15.5406 8.81028 15.3131 8.86869 15.1074C8.93381 14.8955 9.04745 14.8079 9.08577 14.794Z" fill="#FEFEFE" stroke="#333333"/>
</svg>
