<svg width="32" height="32" viewBox="0 0 32 32" fill="none" xmlns="http://www.w3.org/2000/svg">
<path d="M23.8333 17.6667H17.1667V24.3333C17.1667 24.687 17.0262 25.0261 16.7761 25.2761C16.5261 25.5262 16.187 25.6667 15.8333 25.6667C15.4797 25.6667 15.1406 25.5262 14.8905 25.2761C14.6405 25.0261 14.5 24.687 14.5 24.3333V17.6667H7.83333C7.47971 17.6667 7.14057 17.5262 6.89052 17.2761C6.64048 17.0261 6.5 16.687 6.5 16.3333C6.5 15.9797 6.64048 15.6406 6.89052 15.3905C7.14057 15.1405 7.47971 15 7.83333 15H14.5V8.33333C14.5 7.97971 14.6405 7.64057 14.8905 7.39052C15.1406 7.14048 15.4797 7 15.8333 7C16.187 7 16.5261 7.14048 16.7761 7.39052C17.0262 7.64057 17.1667 7.97971 17.1667 8.33333V15H23.8333C24.187 15 24.5261 15.1405 24.7761 15.3905C25.0262 15.6406 25.1667 15.9797 25.1667 16.3333C25.1667 16.687 25.0262 17.0261 24.7761 17.2761C24.5261 17.5262 24.187 17.6667 23.8333 17.6667Z" fill="#111111"/>
</svg>
