<svg width="16" height="23" viewBox="0 0 16 23" fill="none" xmlns="http://www.w3.org/2000/svg">
<path d="M9.01981 12.5223L9.01982 12.5223L9.02438 12.5209L13.1631 11.2218L14.1091 10.9249L13.3085 10.3401L1.29623 1.56658L0.50051 0.9854V1.97076V17.5333V18.6126L1.32436 17.9153L4.89889 14.8901C4.95974 14.8414 5.01053 14.8286 5.0532 14.8286L5.08179 14.8287C5.08274 14.8287 5.08359 14.8288 5.08436 14.8288L5.08668 14.8294L5.09795 14.8317C5.16604 14.8455 5.23345 14.8887 5.28473 14.9814L5.28472 14.9815L5.28624 14.9842L9.11908 21.8189L9.38149 22.2868L9.83011 21.9926L12.3584 20.3345L12.749 20.0783L12.5204 19.671L8.8515 13.1342C8.79193 13.022 8.77704 12.8767 8.82109 12.7456C8.87117 12.6108 8.9634 12.5394 9.01981 12.5223Z" fill="#FEFEFE" stroke="#333333"/>
</svg>
