<svg width="26" height="26" viewBox="0 0 26 26" fill="none" xmlns="http://www.w3.org/2000/svg">
<path d="M13 25.9995C20.1797 25.9995 26 20.1793 26 12.9998C26 5.8202 20.1797 0 13 0C5.8203 0 0 5.8202 0 12.9998C0 20.1793 5.8203 25.9995 13 25.9995Z" fill="#26A17B"/>
<path fill-rule="evenodd" clip-rule="evenodd" d="M14.5615 14.1222V14.1206C14.4722 14.1271 14.0115 14.1547 12.9837 14.1547C12.163 14.1547 11.5853 14.1303 11.3822 14.1206V14.123C8.22321 13.9841 5.86534 13.434 5.86534 12.7759C5.86534 12.1186 8.22321 11.5685 11.3822 11.4272V13.5754C11.5886 13.59 12.1801 13.6249 12.9975 13.6249C13.9782 13.6249 14.4697 13.5843 14.5615 13.5762V11.4288C17.714 11.5693 20.0662 12.1194 20.0662 12.7759C20.0662 13.434 17.714 13.9824 14.5615 14.1222ZM14.5615 11.2054V9.28301H18.9604V6.35156H6.98334V9.28301H11.3822V11.2045C7.80721 11.3687 5.11865 12.0771 5.11865 12.9254C5.11865 13.7736 7.80721 14.4813 11.3822 14.6462V20.8065H14.5615V14.6446C18.1308 14.4805 20.8129 13.7728 20.8129 12.9254C20.8129 12.078 18.1308 11.3703 14.5615 11.2054Z" fill="#FEFEFE"/>
</svg>
