<svg width="10" height="15" viewBox="0 0 10 15" fill="none" xmlns="http://www.w3.org/2000/svg">
<path fill-rule="evenodd" clip-rule="evenodd" d="M1.4265 8.71608L0 9.53968L0.359182 10.1618L1.05036 9.76274C0.958913 10.2009 0.940931 10.6543 1.00015 11.1041C1.11526 11.9784 1.51566 12.7904 2.13925 13.414C2.76285 14.0376 3.57479 14.438 4.44914 14.5531C5.32349 14.6682 6.2114 14.4916 6.97514 14.0506C7.73889 13.6097 8.33579 12.929 8.67328 12.1143C9.01077 11.2995 9.06998 10.3962 8.84172 9.54431C8.61347 8.69246 8.11052 7.93973 7.41086 7.40286C6.71855 6.87164 5.87194 6.58114 4.99983 6.5751V6.57493C4.43421 6.57493 3.88439 6.38829 3.43565 6.04396C2.98691 5.69963 2.66433 5.21685 2.51794 4.6705C2.37154 4.12415 2.40952 3.54476 2.62597 3.02219C2.84243 2.49962 3.22526 2.06308 3.71511 1.78027C4.20495 1.49745 4.77443 1.38418 5.33522 1.45801C5.896 1.53184 6.41675 1.78864 6.81671 2.1886C7.21667 2.58856 7.47348 3.10931 7.5473 3.6701C7.58115 3.92716 7.57567 4.18605 7.53258 4.43826L7.13755 3.75405L6.51543 4.11324L7.61137 6.01146C7.71055 6.18325 7.93022 6.24211 8.10202 6.14293L8.40201 5.96973L8.46929 6.00857C8.49113 5.97074 8.51232 5.9326 8.53286 5.89418L10.0002 5.04699L9.64106 4.42487L8.91759 4.84256C9.01245 4.39858 9.0318 3.93873 8.97174 3.48257C8.85663 2.60821 8.45623 1.79628 7.83263 1.17268C7.20904 0.549084 6.3971 0.148681 5.52275 0.0335701C4.64839 -0.0815407 3.76049 0.0950748 2.99675 0.536023C2.233 0.976972 1.6361 1.65761 1.29861 2.47238C0.96112 3.28714 0.901911 4.1905 1.13016 5.04235C1.35841 5.8942 1.86137 6.64693 2.56103 7.18379C3.25333 7.71502 4.09994 8.00552 4.97205 8.01156V8.01173C5.53768 8.01173 6.0875 8.19837 6.53623 8.5427C6.98497 8.88703 7.30756 9.36981 7.45395 9.91616C7.60034 10.4625 7.56237 11.0419 7.34591 11.5645C7.12946 12.087 6.74662 12.5236 6.25678 12.8064C5.76693 13.0892 5.19746 13.2025 4.63667 13.1286C4.07589 13.0548 3.55513 12.798 3.15518 12.3981C2.75522 11.9981 2.49841 11.4773 2.42458 10.9166C2.38906 10.6467 2.39685 10.3749 2.446 10.1109L2.86269 10.8326L3.48481 10.4734L2.38887 8.57521C2.34124 8.49271 2.26279 8.43251 2.17077 8.40786C2.07876 8.3832 1.98072 8.39611 1.89822 8.44374L1.58406 8.62512L1.5026 8.57809C1.47629 8.62366 1.45092 8.66966 1.4265 8.71608Z" fill="#FEFEFE"/>
</svg>
