<svg width="20" height="18" viewBox="0 0 20 18" fill="none" xmlns="http://www.w3.org/2000/svg">
<path fill-rule="evenodd" clip-rule="evenodd" d="M15.5156 8.65125C16.794 8.83875 17.7728 9.3075 18.452 10.0575C19.1399 10.8298 19.5138 11.8337 19.4996 12.87C19.4996 14.437 18.9718 15.7146 17.8475 16.5793C16.7231 17.4439 15.1013 18 12.9805 18H4.63979V12.8571H8.31836V15.1071H12.6607C13.6539 15.1071 14.4024 14.8371 14.8998 14.4273C15.3972 14.0175 15.6467 13.365 15.6467 12.6C15.6467 11.835 15.394 11.3175 14.8998 10.9173C14.4056 10.5171 13.6571 10.4464 12.6607 10.4464H0V7.55357H4.63819V0H12.7167C14.855 0 16.4336 0.278036 17.4844 1.125C18.5352 1.97196 19.0438 3.04875 19.0438 4.63339C19.0494 5.58646 18.7198 6.51088 18.1129 7.24339C17.5148 7.98107 16.6351 8.44232 15.5156 8.62393V8.65125ZM8.31836 7.54714H12.1985C14.1929 7.54714 15.1893 6.76447 15.1893 5.21679C15.1893 3.66911 14.1929 2.88643 12.1985 2.88643H8.31836V7.54714Z" fill="#F04086"/>
</svg>
