<svg width="16" height="16" viewBox="0 0 16 16" fill="none" xmlns="http://www.w3.org/2000/svg">
<path d="M7.06251 15.2945L0.282501 8.51452C0.179773 8.4118 0.106836 8.30051 0.0636908 8.18066C0.0212301 8.06081 0 7.9324 0 7.79543C0 7.65846 0.0212301 7.53005 0.0636908 7.4102C0.106836 7.29036 0.179773 7.17907 0.282501 7.07634L7.06251 0.296329C7.25085 0.107995 7.48609 0.00937717 7.76825 0.000474128C8.05109 -0.00774407 8.29524 0.0908739 8.5007 0.296329C8.70615 0.484662 8.81333 0.719909 8.82223 1.00207C8.83045 1.28491 8.73183 1.52906 8.52638 1.73451L3.49273 6.76816H14.9725C15.2636 6.76816 15.5077 6.86643 15.705 7.06299C15.9015 7.26022 15.9998 7.50437 15.9998 7.79543C15.9998 8.08649 15.9015 8.3303 15.705 8.52685C15.5077 8.72409 15.2636 8.82271 14.9725 8.82271H3.49273L8.52638 13.8564C8.71471 14.0447 8.81333 14.2844 8.82223 14.5754C8.83045 14.8665 8.73183 15.1062 8.52638 15.2945C8.33804 15.5 8.09835 15.6027 7.80729 15.6027C7.51623 15.6027 7.26797 15.5 7.06251 15.2945Z" fill="#111111"/>
</svg>
