<svg width="12" height="12" viewBox="0 0 12 12" fill="none" xmlns="http://www.w3.org/2000/svg">
<path d="M6.01254 8.00028C5.81255 8.00028 5.64388 7.92945 5.50655 7.78778C5.36889 7.64612 5.30839 7.47945 5.32506 7.28779C5.35006 6.9378 5.43339 6.63364 5.57505 6.37531C5.71672 6.11698 5.94171 5.85032 6.25004 5.57532C6.5917 5.27533 6.85203 5.01483 7.03103 4.79383C7.21036 4.57317 7.30002 4.32118 7.30002 4.03785C7.30002 3.69619 7.18552 3.41286 6.95653 3.18786C6.7272 2.96287 6.40837 2.85037 6.00004 2.85037C5.73338 2.85037 5.50639 2.90653 5.31906 3.01887C5.13139 3.13153 4.97923 3.27119 4.86256 3.43786C4.7459 3.60452 4.60224 3.71702 4.43157 3.77535C4.26058 3.83368 4.09591 3.82952 3.93758 3.76285C3.74592 3.67952 3.61475 3.54202 3.54409 3.35036C3.47309 3.1587 3.48759 2.97953 3.58759 2.81287C3.82925 2.43788 4.15424 2.12538 4.56257 1.87539C4.9709 1.62539 5.45005 1.50039 6.00004 1.50039C6.87503 1.50039 7.54802 1.74422 8.01901 2.23188C8.48967 2.7192 8.725 3.30453 8.725 3.98785C8.725 4.40451 8.6355 4.76084 8.4565 5.05683C8.27717 5.35249 7.99584 5.68782 7.61252 6.06281C7.32919 6.32947 7.12919 6.54614 7.01253 6.7128C6.89586 6.87946 6.8167 7.07113 6.77503 7.28779C6.7417 7.49612 6.6542 7.66695 6.51254 7.80028C6.37087 7.93361 6.20421 8.00028 6.01254 8.00028ZM6.00004 11.0002C5.72505 11.0002 5.48972 10.9024 5.29406 10.7067C5.09806 10.5107 5.00006 10.2752 5.00006 10.0002C5.00006 9.72525 5.09806 9.48975 5.29406 9.29376C5.48972 9.09809 5.72505 9.00026 6.00004 9.00026C6.27504 9.00026 6.51054 9.09809 6.70653 9.29376C6.9022 9.48975 7.00003 9.72525 7.00003 10.0002C7.00003 10.2752 6.9022 10.5107 6.70653 10.7067C6.51054 10.9024 6.27504 11.0002 6.00004 11.0002Z" fill="#FEFEFE"/>
</svg>
