<svg width="100" height="100" viewBox="0 0 100 100" fill="none" xmlns="http://www.w3.org/2000/svg">
<path d="M53.6754 26.1274C53.3043 25.4809 52.7691 24.9438 52.124 24.5702C51.4788 24.1967 50.7466 24 50.0011 24C49.2556 24 48.5233 24.1967 47.8782 24.5702C47.233 24.9438 46.6979 25.4809 46.3267 26.1274L20.6175 69.871C18.9041 72.7879 20.9587 76.496 24.2919 76.496H75.7065C79.0397 76.496 81.0981 72.7842 79.3809 69.871L53.6754 26.1274ZM49.9936 39.0027C51.9995 39.0027 53.5705 40.7349 53.368 42.7333L52.0557 55.8822C52.0116 56.3987 51.7753 56.8799 51.3934 57.2306C51.0116 57.5812 50.512 57.7758 49.9936 57.7758C49.4752 57.7758 48.9756 57.5812 48.5938 57.2306C48.2119 56.8799 47.9755 56.3987 47.9315 55.8822L46.6192 42.7333C46.5721 42.2617 46.6242 41.7855 46.7723 41.3354C46.9204 40.8852 47.1612 40.4711 47.4791 40.1196C47.797 39.7682 48.1849 39.4872 48.618 39.2948C49.0511 39.1025 49.5197 39.0029 49.9936 39.0027ZM50.0011 61.4987C50.9955 61.4987 51.9491 61.8937 52.6523 62.5968C53.3554 63.3 53.7504 64.2536 53.7504 65.248C53.7504 66.2424 53.3554 67.1961 52.6523 67.8992C51.9491 68.6023 50.9955 68.9974 50.0011 68.9974C49.0067 68.9974 48.053 68.6023 47.3499 67.8992C46.6468 67.1961 46.2517 66.2424 46.2517 65.248C46.2517 64.2536 46.6468 63.3 47.3499 62.5968C48.053 61.8937 49.0067 61.4987 50.0011 61.4987Z" fill="#E22727"/>
</svg>
