<svg width="60" height="60" viewBox="0 0 60 60" fill="none" xmlns="http://www.w3.org/2000/svg">
<g clip-path="url(#clip0_1_8750)">
<path d="M33 22.3145H27L24.7781 18.9816C24.4453 18.4801 24.8016 17.8145 25.4016 17.8145H34.5984C35.1984 17.8145 35.5547 18.4801 35.2219 18.9816L33 22.3145ZM27 23.8145H33C33.1781 23.9316 33.3797 24.0629 33.6094 24.2082C36.2672 25.9098 42 29.5754 42 37.3145C42 39.7988 39.9844 41.8145 37.5 41.8145H22.5C20.0156 41.8145 18 39.7988 18 37.3145C18 29.5754 23.7328 25.9098 26.3906 24.2082C26.6156 24.0629 26.8219 23.9316 27 23.8145ZM30.9422 28.3145C30.9422 27.7941 30.5203 27.3723 30 27.3723C29.4797 27.3723 29.0578 27.7941 29.0578 28.3145V28.5957C28.7953 28.652 28.5469 28.7316 28.3125 28.8348C27.6094 29.1535 27.0047 29.7441 26.8547 30.602C26.7703 31.0801 26.8172 31.5395 27.0141 31.9613C27.2109 32.3738 27.5156 32.6645 27.825 32.8754C28.3688 33.2457 29.0859 33.4613 29.6344 33.6254L29.7375 33.6582C30.3891 33.8551 30.8344 34.0051 31.1109 34.2066C31.2281 34.291 31.2703 34.3566 31.2891 34.3988C31.3031 34.4363 31.3313 34.5207 31.2984 34.7129C31.2703 34.877 31.1813 35.0129 30.9234 35.1254C30.6375 35.2473 30.1734 35.3082 29.5734 35.2145C29.2922 35.1676 28.7906 34.9988 28.3453 34.8441C28.2422 34.8066 28.1437 34.7738 28.05 34.7457C27.5578 34.5816 27.0281 34.8488 26.8641 35.341C26.7 35.8332 26.9672 36.3629 27.4594 36.527C27.5156 36.5457 27.5859 36.5691 27.6656 36.5973C28.0359 36.7238 28.6172 36.9207 29.0625 37.0238V37.3145C29.0625 37.8348 29.4844 38.2566 30.0047 38.2566C30.525 38.2566 30.9469 37.8348 30.9469 37.3145V37.0566C31.2 37.0098 31.4391 36.9395 31.6688 36.841C32.4047 36.527 33 35.9176 33.15 35.027C33.2344 34.5395 33.1969 34.0754 33.0094 33.6488C32.8266 33.227 32.5312 32.9176 32.2172 32.6879C31.6453 32.2754 30.8906 32.0457 30.3234 31.8723L30.2859 31.8629C29.6203 31.6613 29.1703 31.5207 28.8844 31.3285C28.7625 31.2441 28.725 31.1879 28.7156 31.1645C28.7063 31.1504 28.6828 31.0895 28.7109 30.9301C28.725 30.841 28.8 30.6863 29.0953 30.5504C29.3953 30.4145 29.8641 30.3395 30.4359 30.4285C30.6375 30.4613 31.275 30.5832 31.4531 30.6301C31.9547 30.7613 32.4656 30.466 32.6016 29.9645C32.7375 29.4629 32.4375 28.952 31.9359 28.816C31.7297 28.7598 31.2609 28.666 30.9516 28.6098V28.3145H30.9422Z" fill="#FF9D43"/>
</g>
<path opacity="0.4" d="M30 60C46.5685 60 60 46.5685 60 30C60 13.4315 46.5685 0 30 0C13.4315 0 0 13.4315 0 30C0 46.5685 13.4315 60 30 60Z" fill="#FF9D43"/>
<mask id="mask0_1_8750" style="mask-type:luminance" maskUnits="userSpaceOnUse" x="0" y="0" width="60" height="60">
<path d="M30 60C46.5685 60 60 46.5685 60 30C60 13.4315 46.5685 0 30 0C13.4315 0 0 13.4315 0 30C0 46.5685 13.4315 60 30 60Z" fill="white"/>
</mask>
<g mask="url(#mask0_1_8750)">
</g>
<defs>
<clipPath id="clip0_1_8750">
<rect width="24" height="24" fill="white" transform="translate(18 17.8145)"/>
</clipPath>
</defs>
</svg>
