<svg width="25" height="21" viewBox="0 0 25 21" fill="none" xmlns="http://www.w3.org/2000/svg">
<path d="M21.3493 8.44429H21.3494C21.3494 8.02511 21.5983 7.70428 21.884 7.51048C22.1715 7.31541 22.5395 7.21227 22.9197 7.21227C23.3029 7.21227 23.671 7.31927 23.9571 7.51507C24.2389 7.70792 24.49 8.02766 24.49 8.44429V13.5101C24.49 13.8934 24.3843 14.39 24.2374 14.9092C24.0871 15.4405 23.8803 16.0401 23.6515 16.6469C23.1936 17.8611 22.6375 19.1305 22.2398 19.9882L22.1029 20.2835H21.7774H9.32157H9.06101L8.90844 20.0723L8.88407 20.0385C8.409 19.3808 7.59181 18.2493 7.19649 17.7949L7.19517 17.7933C6.59272 17.0951 5.78973 16.2689 4.92758 15.3819C4.89274 15.346 4.85781 15.3101 4.82278 15.274C4.82261 15.2739 4.82244 15.2737 4.82226 15.2735L5.18775 14.9183C3.99112 13.693 2.64491 12.3123 1.42108 10.8583L21.3493 8.44429ZM21.3493 8.44429L21.3494 8.45071L21.3766 10.603C21.3765 10.6034 21.3764 10.6041 21.376 10.6052C21.3754 10.6074 21.3734 10.6128 21.368 10.6215C21.3567 10.6396 21.331 10.6701 21.2806 10.704C21.1775 10.7734 21.0045 10.8333 20.7848 10.8333C20.565 10.8333 20.3921 10.7734 20.289 10.704C20.2385 10.6701 20.2129 10.6396 20.2015 10.6215C20.1961 10.6128 20.1942 10.6074 20.1935 10.6052C20.193 10.6034 20.193 10.6027 20.193 10.6023V10.6023V7.22812C20.193 6.81149 19.9419 6.49176 19.6601 6.29891C19.374 6.1031 19.0059 5.9961 18.6227 5.9961C18.2425 5.9961 17.8745 6.09924 17.587 6.29431C17.3013 6.48812 17.0524 6.80894 17.0524 7.22812V9.63303C17.0524 9.63314 17.0524 9.6333 17.0524 9.63352C17.0523 9.63395 17.0522 9.63466 17.0518 9.63594C17.0512 9.63808 17.0492 9.64356 17.0438 9.65224C17.0325 9.67036 17.0068 9.70083 16.9564 9.73476C16.8533 9.80409 16.6803 9.86406 16.4606 9.86406C16.2408 9.86406 16.0679 9.80409 15.9648 9.73476C15.9143 9.70083 15.8887 9.67035 15.8773 9.65224C15.8719 9.64356 15.87 9.63808 15.8693 9.63594C15.8687 9.63402 15.8688 9.63338 15.8688 9.63303V6.25885C15.8688 5.84222 15.6177 5.52248 15.3359 5.32963C15.0498 5.13382 14.6817 5.02683 14.2985 5.02683C13.9183 5.02683 13.5503 5.12997 13.2628 5.32503C12.9771 5.51884 12.7282 5.83967 12.7282 6.25885V8.67289C12.7282 8.67325 12.7282 8.67389 12.7276 8.67581C12.727 8.67795 12.725 8.68343 12.7196 8.69211C12.7083 8.71022 12.6826 8.7407 12.6322 8.77463C12.5291 8.84396 12.3561 8.90393 12.1364 8.90393C11.9166 8.90393 11.7437 8.84396 11.6406 8.77463C11.5901 8.7407 11.5645 8.71022 11.5532 8.69211C11.5477 8.68343 11.5458 8.67795 11.5451 8.67581C11.5445 8.67389 11.5446 8.67325 11.5446 8.67289V1.74166C11.5446 1.32502 11.2935 1.00529 11.0117 0.812437C10.7256 0.616631 10.3575 0.509635 9.97428 0.509635C9.59412 0.509635 9.22611 0.612773 8.93857 0.807842C8.6529 1.00165 8.404 1.32248 8.404 1.74166V12.4671C8.40257 12.4731 8.39517 12.4925 8.3629 12.5236C8.31365 12.571 8.2197 12.6295 8.0732 12.6672C7.75448 12.7394 7.43172 12.6643 7.27873 12.5475C7.27866 12.5475 7.2786 12.5474 7.27854 12.5474L3.02306 9.2835L3.01046 9.27384L2.99729 9.26498C2.70611 9.06918 2.32963 8.97709 1.9786 8.97709C1.61662 8.97709 1.23928 9.06798 0.946317 9.26498C0.754039 9.39428 0.612258 9.57339 0.547569 9.7946C0.485587 10.0066 0.507842 10.2107 0.555036 10.3775C0.645028 10.6957 0.855912 10.9848 1.03379 11.1896L21.3493 8.44429ZM8.40426 12.4651C8.40433 12.4651 8.40431 12.4657 8.404 12.4671L8.40426 12.4651Z" fill="white" stroke="#333333"/>
</svg>
