<svg width="8" height="14" viewBox="0 0 8 14" fill="none" xmlns="http://www.w3.org/2000/svg">
<path d="M0.306086 13.5912C0.110211 13.3952 0.000173379 13.1295 0.000173379 12.8525C0.000173379 12.5754 0.110211 12.3097 0.306086 12.1138L5.478 6.94185L0.306086 1.76994C0.115762 1.57288 0.0104486 1.30895 0.012829 1.035C0.0152095 0.761051 0.125093 0.498994 0.318813 0.305274C0.512534 0.111554 0.77459 0.00167101 1.04854 -0.000709457C1.32249 -0.00308993 1.58642 0.102223 1.78348 0.292548L7.69409 6.20316C7.88996 6.39909 8 6.6648 8 6.94185C8 7.21891 7.88996 7.48461 7.69409 7.68055L1.78348 13.5912C1.58754 13.787 1.32183 13.8971 1.04478 13.8971C0.767729 13.8971 0.502021 13.787 0.306086 13.5912Z" fill="#111111"/>
</svg>
