<svg width="16" height="16" viewBox="0 0 16 16" fill="none" xmlns="http://www.w3.org/2000/svg">
<path d="M14.3635 4.63621C14.1759 4.44874 13.9216 4.34343 13.6565 4.34343C13.3913 4.34343 13.137 4.44874 12.9495 4.63621L7.99946 9.58621L3.04946 4.63621C2.86086 4.45406 2.60826 4.35326 2.34606 4.35554C2.08386 4.35782 1.83305 4.46299 1.64764 4.6484C1.46223 4.8338 1.35707 5.08462 1.35479 5.34681C1.35251 5.60901 1.4533 5.86161 1.63546 6.05021L7.29246 11.7072C7.47999 11.8947 7.7343 12 7.99946 12C8.26463 12 8.51893 11.8947 8.70646 11.7072L14.3635 6.05021C14.5509 5.86269 14.6562 5.60838 14.6562 5.34321C14.6562 5.07805 14.5509 4.82374 14.3635 4.63621Z" fill="#09ABDE"/>
</svg>
