<svg width="11" height="15" viewBox="0 0 11 15" fill="none" xmlns="http://www.w3.org/2000/svg">
<path fill-rule="evenodd" clip-rule="evenodd" d="M1.46668 8.96269L0 9.80948L0.369332 10.4492L1.07987 10.039C0.985817 10.4896 0.967319 10.9558 1.02821 11.4183C1.14657 12.3174 1.55829 13.1522 2.19951 13.7935C2.84073 14.4347 3.67561 14.8464 4.57467 14.9648C5.47373 15.0831 6.38672 14.9015 7.17205 14.4481C7.95738 13.9947 8.57115 13.2948 8.91817 12.457C9.2652 11.6192 9.32608 10.6904 9.09138 9.81443C8.85668 8.93851 8.33951 8.16451 7.62008 7.61248C6.90862 7.06655 6.03867 6.76788 5.14246 6.76133V6.76129C5.14007 6.76129 5.13768 6.76129 5.1353 6.76128C5.13223 6.76128 5.12916 6.76126 5.12609 6.76124C4.55025 6.75768 3.99116 6.56606 3.53407 6.21532C3.07265 5.86126 2.74095 5.36484 2.59042 4.80305C2.43989 4.24126 2.47894 3.6455 2.70151 3.10816C2.92408 2.57083 3.31774 2.12195 3.82143 1.83114C4.32511 1.54034 4.91068 1.42386 5.48731 1.49978C6.06395 1.57569 6.59942 1.83976 7.01067 2.25102C7.42193 2.66228 7.686 3.19775 7.76191 3.77438C7.79672 4.03876 7.79108 4.30501 7.74674 4.5644L7.34058 3.8609L6.70088 4.23023L7.82778 6.1821C7.92977 6.35874 8.15565 6.41927 8.3323 6.31728L8.64094 6.13909L8.70995 6.17893C8.73235 6.14012 8.7541 6.101 8.77517 6.06159L10.2842 5.19037L9.91483 4.55067L9.17087 4.9802C9.26845 4.5236 9.28836 4.05068 9.2266 3.58155C9.10824 2.68249 8.69652 1.84761 8.0553 1.20639C7.41409 0.565171 6.5792 0.153454 5.68014 0.0350898C4.78108 -0.0832737 3.86809 0.098332 3.08276 0.551741C2.29744 1.00515 1.68366 1.70502 1.33664 2.54281C0.989615 3.3806 0.928733 4.30949 1.16343 5.18541C1.39814 6.06133 1.9153 6.83533 2.63473 7.38736C3.3462 7.93329 4.21615 8.23197 5.11236 8.23851V8.23855C5.1148 8.23855 5.11724 8.23855 5.11968 8.23856M5.12856 8.2386C5.70446 8.24213 6.26361 8.43375 6.72074 8.78452C7.18216 9.13858 7.51386 9.635 7.66439 10.1968C7.81492 10.7586 7.77587 11.3543 7.5533 11.8917C7.33073 12.429 6.93707 12.8779 6.43339 13.1687C5.9297 13.4595 5.34413 13.576 4.7675 13.5001C4.19087 13.4241 3.6554 13.1601 3.24414 12.7488C2.83288 12.3376 2.56882 11.8021 2.4929 11.2255C2.45636 10.9479 2.4644 10.6682 2.515 10.3966L2.94358 11.1389L3.58328 10.7696L2.45638 8.81776C2.4074 8.73293 2.32673 8.67103 2.23212 8.64567C2.1375 8.62032 2.03669 8.63359 1.95186 8.68257L1.62855 8.86923L1.54486 8.82091C1.51783 8.86773 1.49177 8.915 1.46668 8.96269" fill="#FEFEFE"/>
</svg>
