<svg width="24" height="24" viewBox="0 0 24 24" fill="none" xmlns="http://www.w3.org/2000/svg">
<path d="M12 24C18.6274 24 24 18.6274 24 12C24 5.37258 18.6274 0 12 0C5.37258 0 0 5.37258 0 12C0 18.6274 5.37258 24 12 24Z" fill="#F1B32B"/>
<path d="M11.8125 3C6.945 3 3 6.945 3 11.8125C3 16.68 6.945 20.625 11.8125 20.625C16.68 20.625 20.625 16.68 20.625 11.8125C20.625 9.47528 19.6965 7.23379 18.0439 5.58112C16.3912 3.92846 14.1497 3 11.8125 3ZM11.8125 18.4275C10.0581 18.4275 8.37554 17.7306 7.13499 16.49C5.89444 15.2495 5.1975 13.5669 5.1975 11.8125C5.1975 10.0581 5.89444 8.37554 7.13499 7.13499C8.37554 5.89444 10.0581 5.1975 11.8125 5.1975C13.5669 5.1975 15.2495 5.89444 16.49 7.13499C17.7306 8.37554 18.4275 10.0581 18.4275 11.8125C18.4275 13.5669 17.7306 15.2495 16.49 16.49C15.2495 17.7306 13.5669 18.4275 11.8125 18.4275ZM9.615 11.82L11.82 15.12L14.01 11.82L11.82 8.5125L9.615 11.82Z" fill="#FEFEFE"/>
</svg>
