<svg width="9" height="9" viewBox="0 0 9 9" fill="none" xmlns="http://www.w3.org/2000/svg">
<path d="M4.5 0C2.01447 0 0 2.01447 0 4.5C0 6.98553 2.01447 9 4.5 9C6.98553 9 9 6.98553 9 4.5C9 3.30653 8.52589 2.16193 7.68198 1.31802C6.83807 0.474106 5.69347 0 4.5 0ZM4.5 7.87787C3.60413 7.87787 2.74496 7.52199 2.11148 6.88852C1.47801 6.25504 1.12213 5.39587 1.12213 4.5C1.12213 3.60413 1.47801 2.74496 2.11148 2.11148C2.74496 1.47801 3.60413 1.12213 4.5 1.12213C5.39587 1.12213 6.25504 1.47801 6.88852 2.11148C7.52199 2.74496 7.87787 3.60413 7.87787 4.5C7.87787 5.39587 7.52199 6.25504 6.88852 6.88852C6.25504 7.52199 5.39587 7.87787 4.5 7.87787ZM3.37787 4.50383L4.50383 6.18894L5.62213 4.50383L4.50383 2.81489L3.37787 4.50383Z" fill="#FEFEFE"/>
</svg>
