<svg width="24" height="24" viewBox="0 0 24 24" fill="none" xmlns="http://www.w3.org/2000/svg">
<path d="M4.47656 4.87414H19.4766C19.6518 4.87406 19.8268 4.88518 20.0006 4.90742C19.9417 4.49388 19.7997 4.09655 19.583 3.73939C19.3664 3.38222 19.0797 3.07263 18.7402 2.82927C18.4007 2.58591 18.0154 2.41382 17.6076 2.32338C17.1998 2.23294 16.7779 2.22602 16.3673 2.30305L4.03125 4.40914H4.01719C3.24285 4.55722 2.55425 4.99533 2.09203 5.63399C2.7884 5.13867 3.622 4.87304 4.47656 4.87414ZM19.4766 5.99914H4.47656C3.68118 6.00001 2.91862 6.31636 2.3562 6.87878C1.79378 7.4412 1.47743 8.20376 1.47656 8.99914V17.9991C1.47743 18.7945 1.79378 19.5571 2.3562 20.1195C2.91862 20.6819 3.68118 20.9983 4.47656 20.9991H19.4766C20.2719 20.9983 21.0345 20.6819 21.5969 20.1195C22.1593 19.5571 22.4757 18.7945 22.4766 17.9991V8.99914C22.4757 8.20376 22.1593 7.4412 21.5969 6.87878C21.0345 6.31636 20.2719 6.00001 19.4766 5.99914ZM17.25 14.9991C16.9533 14.9991 16.6633 14.9112 16.4166 14.7463C16.17 14.5815 15.9777 14.3473 15.8642 14.0732C15.7506 13.7991 15.7209 13.4975 15.7788 13.2065C15.8367 12.9155 15.9796 12.6483 16.1893 12.4385C16.3991 12.2287 16.6664 12.0858 16.9574 12.028C17.2483 11.9701 17.5499 11.9998 17.824 12.1133C18.0981 12.2269 18.3324 12.4191 18.4972 12.6658C18.662 12.9125 18.75 13.2025 18.75 13.4991C18.75 13.897 18.592 14.2785 18.3107 14.5598C18.0294 14.8411 17.6478 14.9991 17.25 14.9991Z" fill="#FEFEFE"/>
<path d="M1.5 12.1641V7.5C1.5 6.48422 2.0625 4.78125 4.01484 4.41234C5.67188 4.10156 7.3125 4.10156 7.3125 4.10156C7.3125 4.10156 8.39062 4.85156 7.5 4.85156C6.60938 4.85156 6.63281 6 7.5 6C8.36719 6 7.5 7.10156 7.5 7.10156L4.00781 11.0625L1.5 12.1641Z" fill="#FEFEFE"/>
</svg>
