<svg width="50" height="50" viewBox="0 0 50 50" fill="none" xmlns="http://www.w3.org/2000/svg">
<path d="M13.9587 43.75C12.9518 43.75 12.058 43.4201 11.2775 42.7604C10.4955 42.1007 10.0177 41.2674 9.84413 40.2604L6.66705 21.1979C6.56288 20.5729 6.7108 20.009 7.1108 19.5062C7.50941 19.0021 8.03858 18.75 8.6983 18.75H41.3025C41.9622 18.75 42.4914 19.0021 42.89 19.5062C43.29 20.009 43.4379 20.5729 43.3337 21.1979L40.1566 40.2604C39.983 41.2674 39.5059 42.1007 38.7254 42.7604C37.9434 43.4201 37.049 43.75 36.042 43.75H13.9587ZM11.2504 22.9167L13.9066 39.5833H36.0941L38.7504 22.9167H11.2504ZM20.8337 31.25H29.167C29.7573 31.25 30.2525 31.05 30.6525 30.65C31.0511 30.2514 31.2504 29.7569 31.2504 29.1667C31.2504 28.5764 31.0511 28.0812 30.6525 27.6812C30.2525 27.2826 29.7573 27.0833 29.167 27.0833H20.8337C20.2434 27.0833 19.749 27.2826 19.3504 27.6812C18.9504 28.0812 18.7504 28.5764 18.7504 29.1667C18.7504 29.7569 18.9504 30.2514 19.3504 30.65C19.749 31.05 20.2434 31.25 20.8337 31.25ZM12.5004 16.6667C11.9101 16.6667 11.415 16.4674 11.015 16.0687C10.6164 15.6687 10.417 15.1736 10.417 14.5833C10.417 13.9931 10.6164 13.4979 11.015 13.0979C11.415 12.6993 11.9101 12.5 12.5004 12.5H37.5004C38.0907 12.5 38.5851 12.6993 38.9837 13.0979C39.3837 13.4979 39.5837 13.9931 39.5837 14.5833C39.5837 15.1736 39.3837 15.6687 38.9837 16.0687C38.5851 16.4674 38.0907 16.6667 37.5004 16.6667H12.5004ZM16.667 10.4167C16.0768 10.4167 15.5816 10.2167 15.1816 9.81667C14.783 9.41806 14.5837 8.92361 14.5837 8.33333C14.5837 7.74306 14.783 7.24792 15.1816 6.84792C15.5816 6.44931 16.0768 6.25 16.667 6.25H33.3337C33.924 6.25 34.4184 6.44931 34.817 6.84792C35.217 7.24792 35.417 7.74306 35.417 8.33333C35.417 8.92361 35.217 9.41806 34.817 9.81667C34.4184 10.2167 33.924 10.4167 33.3337 10.4167H16.667ZM13.9066 39.5833H36.0941H13.9066Z" fill="#848484"/>
</svg>
