<svg width="16" height="16" viewBox="0 0 16 16" fill="none" xmlns="http://www.w3.org/2000/svg">
<path d="M7.99974 2.66745C8.08863 2.66745 8.17196 2.68145 8.24974 2.70945C8.32752 2.737 8.39974 2.78412 8.46641 2.85078L12.8664 7.25078C12.9997 7.38412 13.0664 7.54256 13.0664 7.72611C13.0664 7.90923 12.9997 8.06745 12.8664 8.20078C12.7331 8.33412 12.5775 8.40078 12.3997 8.40078C12.222 8.40078 12.0664 8.33412 11.9331 8.20078L8.66641 4.93412V12.4008C8.66641 12.5897 8.60241 12.7452 8.47441 12.8674C8.34685 12.9897 8.18863 13.0508 7.99974 13.0508C7.81085 13.0508 7.65241 12.987 7.52441 12.8594C7.39685 12.7314 7.33307 12.573 7.33307 12.3841V4.93412L4.06641 8.20078C3.93307 8.33412 3.77752 8.40078 3.59974 8.40078C3.42196 8.40078 3.26641 8.33412 3.13307 8.20078C2.99974 8.06745 2.93307 7.90923 2.93307 7.72611C2.93307 7.54256 2.99974 7.38412 3.13307 7.25078L7.53307 2.85078C7.59974 2.78412 7.67196 2.737 7.74974 2.70945C7.82752 2.68145 7.91085 2.66745 7.99974 2.66745Z" fill="#111111"/>
</svg>
