<svg width="12" height="12" viewBox="0 0 12 12" fill="none" xmlns="http://www.w3.org/2000/svg">
<path d="M6.01254 7.99976C5.81255 7.99976 5.64388 7.92892 5.50655 7.78726C5.36889 7.64559 5.30839 7.47893 5.32506 7.28727C5.35006 6.93727 5.43339 6.63311 5.57505 6.37478C5.71672 6.11645 5.94171 5.84979 6.25004 5.5748C6.5917 5.2748 6.85203 5.01431 7.03103 4.79331C7.21036 4.57265 7.30002 4.32065 7.30002 4.03732C7.30002 3.69566 7.18552 3.41234 6.95653 3.18734C6.7272 2.96234 6.40837 2.84985 6.00004 2.84985C5.73338 2.84985 5.50639 2.90601 5.31906 3.01834C5.13139 3.13101 4.97923 3.27067 4.86256 3.43734C4.7459 3.604 4.60224 3.7165 4.43157 3.77483C4.26058 3.83316 4.09591 3.829 3.93758 3.76233C3.74592 3.679 3.61475 3.5415 3.54409 3.34984C3.47309 3.15817 3.48759 2.97901 3.58759 2.81235C3.82925 2.43735 4.15424 2.12486 4.56257 1.87486C4.9709 1.62487 5.45005 1.49987 6.00004 1.49987C6.87503 1.49987 7.54802 1.7437 8.01901 2.23136C8.48967 2.71868 8.725 3.304 8.725 3.98733C8.725 4.40398 8.6355 4.76031 8.4565 5.05631C8.27717 5.35197 7.99584 5.6873 7.61252 6.06229C7.32919 6.32895 7.12919 6.54561 7.01253 6.71228C6.89586 6.87894 6.8167 7.0706 6.77503 7.28727C6.7417 7.4956 6.6542 7.66643 6.51254 7.79976C6.37087 7.93309 6.20421 7.99976 6.01254 7.99976ZM6.00004 10.9997C5.72505 10.9997 5.48972 10.9019 5.29406 10.7062C5.09806 10.5102 5.00006 10.2747 5.00006 9.99972C5.00006 9.72472 5.09806 9.48923 5.29406 9.29323C5.48972 9.09757 5.72505 8.99974 6.00004 8.99974C6.27504 8.99974 6.51054 9.09757 6.70653 9.29323C6.9022 9.48923 7.00003 9.72472 7.00003 9.99972C7.00003 10.2747 6.9022 10.5102 6.70653 10.7062C6.51054 10.9019 6.27504 10.9997 6.00004 10.9997Z" fill="#FEFEFE"/>
</svg>
