<svg width="40" height="40" viewBox="0 0 40 40" fill="none" xmlns="http://www.w3.org/2000/svg">
<path d="M12 13.25C12 12.388 12.3424 11.5614 12.9519 10.9519C13.5614 10.3424 14.388 10 15.25 10H24.75C25.612 10 26.4386 10.3424 27.0481 10.9519C27.6576 11.5614 28 12.388 28 13.25V26.75C28 27.1768 27.9159 27.5994 27.7526 27.9937C27.5893 28.388 27.3499 28.7463 27.0481 29.0481C26.7463 29.3499 26.388 29.5893 25.9937 29.7526C25.5994 29.9159 25.1768 30 24.75 30H15.25C14.8232 30 14.4006 29.9159 14.0063 29.7526C13.612 29.5893 13.2537 29.3499 12.9519 29.0481C12.6501 28.7463 12.4107 28.388 12.2474 27.9937C12.0841 27.5994 12 27.1768 12 26.75V13.25ZM17 13C16.4696 13 15.9609 13.2107 15.5858 13.5858C15.2107 13.9609 15 14.4696 15 15V16C15 16.5304 15.2107 17.0391 15.5858 17.4142C15.9609 17.7893 16.4696 18 17 18H23C23.5304 18 24.0391 17.7893 24.4142 17.4142C24.7893 17.0391 25 16.5304 25 16V15C25 14.4696 24.7893 13.9609 24.4142 13.5858C24.0391 13.2107 23.5304 13 23 13H17ZM17.5 21.25C17.5 20.9185 17.3683 20.6005 17.1339 20.3661C16.8995 20.1317 16.5815 20 16.25 20C15.9185 20 15.6005 20.1317 15.3661 20.3661C15.1317 20.6005 15 20.9185 15 21.25C15 21.5815 15.1317 21.8995 15.3661 22.1339C15.6005 22.3683 15.9185 22.5 16.25 22.5C16.5815 22.5 16.8995 22.3683 17.1339 22.1339C17.3683 21.8995 17.5 21.5815 17.5 21.25ZM16.25 26.5C16.5815 26.5 16.8995 26.3683 17.1339 26.1339C17.3683 25.8995 17.5 25.5815 17.5 25.25C17.5 24.9185 17.3683 24.6005 17.1339 24.3661C16.8995 24.1317 16.5815 24 16.25 24C15.9185 24 15.6005 24.1317 15.3661 24.3661C15.1317 24.6005 15 24.9185 15 25.25C15 25.5815 15.1317 25.8995 15.3661 26.1339C15.6005 26.3683 15.9185 26.5 16.25 26.5ZM25 21.25C25 20.9185 24.8683 20.6005 24.6339 20.3661C24.3995 20.1317 24.0815 20 23.75 20C23.4185 20 23.1005 20.1317 22.8661 20.3661C22.6317 20.6005 22.5 20.9185 22.5 21.25C22.5 21.5815 22.6317 21.8995 22.8661 22.1339C23.1005 22.3683 23.4185 22.5 23.75 22.5C24.0815 22.5 24.3995 22.3683 24.6339 22.1339C24.8683 21.8995 25 21.5815 25 21.25ZM23.75 26.5C24.0815 26.5 24.3995 26.3683 24.6339 26.1339C24.8683 25.8995 25 25.5815 25 25.25C25 24.9185 24.8683 24.6005 24.6339 24.3661C24.3995 24.1317 24.0815 24 23.75 24C23.4185 24 23.1005 24.1317 22.8661 24.3661C22.6317 24.6005 22.5 24.9185 22.5 25.25C22.5 25.5815 22.6317 25.8995 22.8661 26.1339C23.1005 26.3683 23.4185 26.5 23.75 26.5ZM21.25 21.25C21.25 20.9185 21.1183 20.6005 20.8839 20.3661C20.6495 20.1317 20.3315 20 20 20C19.6685 20 19.3505 20.1317 19.1161 20.3661C18.8817 20.6005 18.75 20.9185 18.75 21.25C18.75 21.5815 18.8817 21.8995 19.1161 22.1339C19.3505 22.3683 19.6685 22.5 20 22.5C20.3315 22.5 20.6495 22.3683 20.8839 22.1339C21.1183 21.8995 21.25 21.5815 21.25 21.25ZM20 26.5C20.3315 26.5 20.6495 26.3683 20.8839 26.1339C21.1183 25.8995 21.25 25.5815 21.25 25.25C21.25 24.9185 21.1183 24.6005 20.8839 24.3661C20.6495 24.1317 20.3315 24 20 24C19.6685 24 19.3505 24.1317 19.1161 24.3661C18.8817 24.6005 18.75 24.9185 18.75 25.25C18.75 25.5815 18.8817 25.8995 19.1161 26.1339C19.3505 26.3683 19.6685 26.5 20 26.5Z" fill="#00AEEF"/>
<rect opacity="0.2" width="40" height="40" rx="7" fill="#00AEEF"/>
</svg>
