<svg width="42" height="42" viewBox="0 0 42 42" fill="none" xmlns="http://www.w3.org/2000/svg">
<path d="M13 14.25C13 13.388 13.3424 12.5614 13.9519 11.9519C14.5614 11.3424 15.388 11 16.25 11H25.75C26.612 11 27.4386 11.3424 28.0481 11.9519C28.6576 12.5614 29 13.388 29 14.25V27.75C29 28.1768 28.9159 28.5994 28.7526 28.9937C28.5893 29.388 28.3499 29.7463 28.0481 30.0481C27.7463 30.3499 27.388 30.5893 26.9937 30.7526C26.5994 30.9159 26.1768 31 25.75 31H16.25C15.8232 31 15.4006 30.9159 15.0063 30.7526C14.612 30.5893 14.2537 30.3499 13.9519 30.0481C13.6501 29.7463 13.4107 29.388 13.2474 28.9937C13.0841 28.5994 13 28.1768 13 27.75V14.25ZM18 14C17.4696 14 16.9609 14.2107 16.5858 14.5858C16.2107 14.9609 16 15.4696 16 16V17C16 17.5304 16.2107 18.0391 16.5858 18.4142C16.9609 18.7893 17.4696 19 18 19H24C24.5304 19 25.0391 18.7893 25.4142 18.4142C25.7893 18.0391 26 17.5304 26 17V16C26 15.4696 25.7893 14.9609 25.4142 14.5858C25.0391 14.2107 24.5304 14 24 14H18ZM18.5 22.25C18.5 21.9185 18.3683 21.6005 18.1339 21.3661C17.8995 21.1317 17.5815 21 17.25 21C16.9185 21 16.6005 21.1317 16.3661 21.3661C16.1317 21.6005 16 21.9185 16 22.25C16 22.5815 16.1317 22.8995 16.3661 23.1339C16.6005 23.3683 16.9185 23.5 17.25 23.5C17.5815 23.5 17.8995 23.3683 18.1339 23.1339C18.3683 22.8995 18.5 22.5815 18.5 22.25ZM17.25 27.5C17.5815 27.5 17.8995 27.3683 18.1339 27.1339C18.3683 26.8995 18.5 26.5815 18.5 26.25C18.5 25.9185 18.3683 25.6005 18.1339 25.3661C17.8995 25.1317 17.5815 25 17.25 25C16.9185 25 16.6005 25.1317 16.3661 25.3661C16.1317 25.6005 16 25.9185 16 26.25C16 26.5815 16.1317 26.8995 16.3661 27.1339C16.6005 27.3683 16.9185 27.5 17.25 27.5ZM26 22.25C26 21.9185 25.8683 21.6005 25.6339 21.3661C25.3995 21.1317 25.0815 21 24.75 21C24.4185 21 24.1005 21.1317 23.8661 21.3661C23.6317 21.6005 23.5 21.9185 23.5 22.25C23.5 22.5815 23.6317 22.8995 23.8661 23.1339C24.1005 23.3683 24.4185 23.5 24.75 23.5C25.0815 23.5 25.3995 23.3683 25.6339 23.1339C25.8683 22.8995 26 22.5815 26 22.25ZM24.75 27.5C25.0815 27.5 25.3995 27.3683 25.6339 27.1339C25.8683 26.8995 26 26.5815 26 26.25C26 25.9185 25.8683 25.6005 25.6339 25.3661C25.3995 25.1317 25.0815 25 24.75 25C24.4185 25 24.1005 25.1317 23.8661 25.3661C23.6317 25.6005 23.5 25.9185 23.5 26.25C23.5 26.5815 23.6317 26.8995 23.8661 27.1339C24.1005 27.3683 24.4185 27.5 24.75 27.5ZM22.25 22.25C22.25 21.9185 22.1183 21.6005 21.8839 21.3661C21.6495 21.1317 21.3315 21 21 21C20.6685 21 20.3505 21.1317 20.1161 21.3661C19.8817 21.6005 19.75 21.9185 19.75 22.25C19.75 22.5815 19.8817 22.8995 20.1161 23.1339C20.3505 23.3683 20.6685 23.5 21 23.5C21.3315 23.5 21.6495 23.3683 21.8839 23.1339C22.1183 22.8995 22.25 22.5815 22.25 22.25ZM21 27.5C21.3315 27.5 21.6495 27.3683 21.8839 27.1339C22.1183 26.8995 22.25 26.5815 22.25 26.25C22.25 25.9185 22.1183 25.6005 21.8839 25.3661C21.6495 25.1317 21.3315 25 21 25C20.6685 25 20.3505 25.1317 20.1161 25.3661C19.8817 25.6005 19.75 25.9185 19.75 26.25C19.75 26.5815 19.8817 26.8995 20.1161 27.1339C20.3505 27.3683 20.6685 27.5 21 27.5Z" fill="#418EE7"/>
<rect x="1" y="1" width="40" height="40" rx="7" stroke="black" stroke-opacity="0.2" stroke-width="2"/>
</svg>
