<svg width="14" height="14" viewBox="0 0 14 14" fill="none" xmlns="http://www.w3.org/2000/svg">
<path d="M1.16042 5.7801L3.30417 6.69885C3.58611 5.97941 3.87778 5.36691 4.17917 4.86135C4.48056 4.3558 4.89375 3.79191 5.41875 3.16969L4.66042 3.00927C4.46597 2.97038 4.27639 2.9801 4.09167 3.03844C3.90694 3.09677 3.74653 3.19399 3.61042 3.3301L1.16042 5.7801ZM4.15 7.10719L6.425 9.39677C7.125 9.17316 7.79097 8.86457 8.42292 8.47102C9.05486 8.07707 9.63819 7.61274 10.1729 7.07802C11.0285 6.22246 11.6653 5.24538 12.0833 4.14677C12.5014 3.04816 12.6278 2.02246 12.4625 1.06969C11.5097 0.904408 10.484 1.03313 9.38542 1.45585C8.2868 1.87896 7.30972 2.5183 6.45417 3.37385C5.90972 3.9183 5.44539 4.50163 5.06117 5.12385C4.67733 5.74607 4.37361 6.40719 4.15 7.10719ZM8.175 5.35719C7.95139 5.13357 7.83958 4.85882 7.83958 4.53294C7.83958 4.20744 7.95139 3.93288 8.175 3.70927C8.39861 3.48566 8.67336 3.37385 8.99925 3.37385C9.32475 3.37385 9.59931 3.48566 9.82292 3.70927C10.0465 3.93288 10.1583 4.20744 10.1583 4.53294C10.1583 4.85882 10.0465 5.13357 9.82292 5.35719C9.59931 5.5808 9.32475 5.6926 8.99925 5.6926C8.67336 5.6926 8.39861 5.5808 8.175 5.35719ZM7.76667 12.3718L10.2021 9.93635C10.3382 9.80024 10.4354 9.63749 10.4938 9.4481C10.5521 9.25832 10.5618 9.06621 10.5229 8.87177L10.3771 8.11344C9.75486 8.63844 9.18864 9.05163 8.67842 9.35302C8.16781 9.65441 7.55278 9.94607 6.83333 10.228L7.76667 12.3718ZM2.09375 8.97385C2.43403 8.63357 2.84722 8.46091 3.33333 8.45585C3.81944 8.45119 4.23264 8.61899 4.57292 8.95927C4.91319 9.29955 5.08333 9.71274 5.08333 10.1989C5.08333 10.685 4.91319 11.0982 4.57292 11.4384C4.32986 11.6815 3.92406 11.8905 3.3555 12.0655C2.78656 12.2405 2.00139 12.3961 1 12.5322C1.13611 11.5308 1.29167 10.7482 1.46667 10.1843C1.64167 9.62038 1.85069 9.21691 2.09375 8.97385Z" fill="#FEFEFE"/>
</svg>
