<svg width="20" height="16" viewBox="0 0 20 16" fill="none" xmlns="http://www.w3.org/2000/svg">
<path d="M19.9999 1.93876C19.2856 2.24488 18.4693 2.44897 17.653 2.55101C18.4693 2.04081 19.1836 1.22449 19.4897 0.306124C18.6734 0.816326 17.8571 1.12245 16.8367 1.32653C16.1224 0.510205 14.9999 0 13.8775 0C11.6326 0 9.79586 1.83673 9.79586 4.08161C9.79586 4.38773 9.79587 4.69385 9.89791 4.99997C6.53058 4.79589 3.46936 3.16325 1.42856 0.714279C1.12244 1.32652 0.918357 2.0408 0.918357 2.75509C0.918357 4.18365 1.63264 5.40814 2.75509 6.12242C2.0408 6.12242 1.42856 5.91834 0.918357 5.61222C0.918357 7.55098 2.34692 9.28566 4.18364 9.59178C3.87752 9.69382 3.46937 9.69383 3.06121 9.69383C2.75509 9.69383 2.551 9.69382 2.24488 9.59178C2.75509 11.2244 4.28569 12.4489 6.12242 12.4489C4.69385 13.5714 2.95917 14.1836 1.0204 14.1836C0.714282 14.1836 0.408161 14.1836 0 14.0816C1.83673 15.204 3.97957 15.9183 6.3265 15.9183C13.8775 15.9183 17.9591 9.69383 17.9591 4.28569V3.77549C18.7754 3.46937 19.4897 2.75508 19.9999 1.93876Z" fill="#111111"/>
</svg>
