<svg width="50" height="50" viewBox="0 0 50 50" fill="none" xmlns="http://www.w3.org/2000/svg">
<path d="M26.8377 13.0637C26.6521 12.7405 26.3846 12.4719 26.062 12.2851C25.7394 12.0983 25.3733 12 25.0005 12C24.6278 12 24.2617 12.0983 23.9391 12.2851C23.6165 12.4719 23.3489 12.7405 23.1634 13.0637L10.3088 34.9355C9.45204 36.394 10.4794 38.248 12.1459 38.248H37.8533C39.5199 38.248 40.549 36.3921 39.6905 34.9355L26.8377 13.0637ZM24.9968 19.5013C25.9997 19.5013 26.7852 20.3674 26.684 21.3666L26.0279 27.9411C26.0058 28.1994 25.8876 28.44 25.6967 28.6153C25.5058 28.7906 25.256 28.8879 24.9968 28.8879C24.7376 28.8879 24.4878 28.7906 24.2969 28.6153C24.1059 28.44 23.9878 28.1994 23.9657 27.9411L23.3096 21.3666C23.286 21.1309 23.3121 20.8928 23.3862 20.6677C23.4602 20.4426 23.5806 20.2355 23.7395 20.0598C23.8985 19.8841 24.0925 19.7436 24.309 19.6474C24.5256 19.5512 24.7598 19.5015 24.9968 19.5013ZM25.0005 30.7493C25.4977 30.7493 25.9746 30.9469 26.3261 31.2984C26.6777 31.65 26.8752 32.1268 26.8752 32.624C26.8752 33.1212 26.6777 33.598 26.3261 33.9496C25.9746 34.3012 25.4977 34.4987 25.0005 34.4987C24.5033 34.4987 24.0265 34.3012 23.675 33.9496C23.3234 33.598 23.1259 33.1212 23.1259 32.624C23.1259 32.1268 23.3234 31.65 23.675 31.2984C24.0265 30.9469 24.5033 30.7493 25.0005 30.7493Z" fill="#AEAEAE"/>
</svg>
