<svg width="26" height="26" viewBox="0 0 26 26" fill="none" xmlns="http://www.w3.org/2000/svg">
<path opacity="0.2" d="M25.61 16.1449C23.8737 23.1093 16.8196 27.3472 9.85447 25.6109C2.8926 23.8746 -1.34579 16.8205 0.390925 9.85663C2.12642 2.89151 9.1801 -1.34728 16.1432 0.389021C23.1079 2.12533 27.3459 9.18023 25.6096 16.1449H25.61Z" fill="#F7931A"/>
<path fill-rule="evenodd" clip-rule="evenodd" d="M16.6081 10.6653C16.5429 9.48061 15.5405 9.04307 14.259 8.87745L14.3264 7.24056L13.3297 7.1997L13.2642 8.79345C13.0025 8.78265 12.7346 8.7768 12.4684 8.77116L12.5345 7.16686L11.5387 7.12584L11.471 8.76225C11.2551 8.75777 11.0431 8.75306 10.8365 8.74469L10.8366 8.73961L9.46239 8.68257L9.41885 9.74673C9.41885 9.74673 10.1552 9.76299 10.1424 9.77604C10.546 9.79277 10.668 10.0324 10.6976 10.2362L10.6209 12.101C10.6487 12.1023 10.685 12.1049 10.7259 12.1123L10.6209 12.108L10.5129 14.7204C10.4899 14.8467 10.4069 15.0461 10.125 15.035C10.1372 15.0468 9.40069 15.005 9.40069 15.005L9.1538 16.187L10.4507 16.2403C10.5971 16.2465 10.7421 16.2541 10.8855 16.2615C10.9783 16.2663 11.0705 16.2711 11.162 16.2755L11.0943 17.9313L12.0896 17.9725L12.1572 16.3344C12.43 16.3513 12.6944 16.3644 12.9526 16.3748L12.885 18.0052L13.8814 18.0462L13.9497 16.3936C15.6288 16.3664 16.8188 15.9926 17.0287 14.426C17.1984 13.1642 16.6261 12.5744 15.6846 12.3067C16.2742 12.0358 16.6567 11.5324 16.6078 10.6654L16.6081 10.6653ZM15.0681 14.1479C15.0216 15.2835 13.2385 15.185 12.4233 15.14C12.3504 15.1359 12.2851 15.1323 12.2296 15.1301L12.3201 12.9366C12.388 12.9394 12.4705 12.9409 12.564 12.9425L12.564 12.9425C13.4008 12.9572 15.1155 12.9873 15.0684 14.1478L15.0681 14.1479ZM12.5253 11.9413C13.2058 11.9805 14.6891 12.0659 14.7318 11.0342C14.7754 9.97876 13.3459 9.95792 12.6477 9.94773C12.5692 9.94659 12.5 9.94558 12.4431 9.94325L12.3612 11.9326C12.4081 11.9345 12.4634 11.9377 12.5253 11.9413Z" fill="#F7931A"/>
</svg>
