<svg width="19" height="20" viewBox="0 0 19 20" fill="none" xmlns="http://www.w3.org/2000/svg">
<path d="M10.9022 10.9555L10.9022 10.9555L10.9057 10.9547L16.03 9.82812L17.452 9.51548L16.1558 8.85235L1.28338 1.24356L0.522662 0.854373V1.70886V15.2054V16.1229L1.31186 15.655L5.73851 13.0307C5.83411 12.9769 5.94325 12.9484 6.06235 12.9484C6.12831 12.9484 6.13635 12.9493 6.1504 12.9518L6.1589 12.9533L6.16744 12.9545C6.33722 12.9786 6.43521 13.048 6.48105 13.1061L6.48104 13.1061L6.48336 13.109L11.2288 19.0364L11.484 19.3551L11.855 19.1847L14.9853 17.7467L15.5935 17.4673L15.175 16.945L10.6335 11.2771C10.6094 11.2451 10.6016 11.2188 10.5995 11.2017C10.5976 11.1864 10.5989 11.168 10.6098 11.1442C10.6457 11.0795 10.7462 10.9886 10.9022 10.9555Z" fill="white" stroke="#333333"/>
</svg>
