<svg width="21" height="21" viewBox="0 0 21 21" fill="none" xmlns="http://www.w3.org/2000/svg">
<path d="M17.7444 8.29073L17.7443 8.28541C17.7443 7.51832 18.4692 7.07657 19.1221 7.07657C19.7795 7.07657 20.5 7.53087 20.5 8.28541V13.2559C20.5 13.6206 20.4147 14.0996 20.2932 14.6086C20.1694 15.1275 19.9988 15.7142 19.8097 16.3088C19.4313 17.4986 18.9715 18.7429 18.6426 19.5839L18.5182 19.9019H18.1769H7.86884H7.58794L7.44179 19.662L7.4218 19.6291C7.02859 18.9837 6.35218 17.8733 6.02523 17.4277L6.0241 17.4261C5.52585 16.7415 4.86171 15.9313 4.14809 15.0608C4.11931 15.0256 4.09044 14.9904 4.0615 14.9551C4.06136 14.955 4.06122 14.9548 4.06109 14.9546L4.44783 14.6376C3.45754 13.4354 2.34346 12.0806 1.33066 10.654L17.7444 8.29073ZM17.7444 8.29073L17.7668 10.4028C17.7668 10.4033 17.7668 10.4038 17.7668 10.4043C17.7664 10.4285 17.7553 10.474 17.6893 10.5266C17.6204 10.5815 17.5048 10.6295 17.3554 10.6295C17.2059 10.6295 17.0903 10.5815 17.0214 10.5266C16.9541 10.4729 16.9439 10.4267 16.9439 10.4028V7.09213C16.9439 6.33758 16.2234 5.88329 15.5661 5.88329C14.9132 5.88329 14.1883 6.32503 14.1883 7.09213V9.45178C14.1883 9.47563 14.1781 9.52187 14.1108 9.57557C14.0419 9.63047 13.9263 9.67847 13.7768 9.67847C13.6274 9.67847 13.5118 9.63047 13.4429 9.57557C13.3755 9.52187 13.3654 9.47563 13.3654 9.45178V6.14109C13.3654 5.38654 12.6449 4.93225 11.9875 4.93225C11.3346 4.93225 10.6097 5.37399 10.6097 6.14109V8.50971C10.6097 8.53356 10.5996 8.5798 10.5322 8.6335C10.4633 8.6884 10.3477 8.73641 10.1983 8.73641C10.0488 8.73641 9.9332 8.6884 9.86434 8.6335C9.79699 8.5798 9.7868 8.53356 9.7868 8.50971V1.70889C9.7868 0.954341 9.06634 0.500047 8.40899 0.500047C7.75608 0.500047 7.03119 0.941791 7.03119 1.70889V12.2331C7.03119 12.2548 7.0066 12.3697 6.79712 12.4342C6.57773 12.4923 6.35936 12.4299 6.25801 12.3383C6.25792 12.3382 6.25784 12.3381 6.25775 12.3381L2.73615 9.13566L2.72414 9.12474L2.71145 9.11463C2.45259 8.90824 2.1129 8.80818 1.79205 8.80818C1.4629 8.80818 1.12225 8.90665 0.861386 9.11463C0.483827 9.41565 0.456798 9.84118 0.533393 10.1622C0.605062 10.4626 0.775614 10.7425 0.925153 10.9467L17.7444 8.29073Z" fill="#FEFEFE" stroke="#333333"/>
</svg>
