<svg width="16" height="16" viewBox="0 0 16 16" fill="none" xmlns="http://www.w3.org/2000/svg">
<path d="M1.63654 4.63621C1.82406 4.44874 2.07837 4.34343 2.34354 4.34343C2.6087 4.34343 2.86301 4.44874 3.05054 4.63621L8.00054 9.58621L12.9505 4.63621C13.1391 4.45406 13.3917 4.35326 13.6539 4.35554C13.9161 4.35782 14.1669 4.46299 14.3524 4.6484C14.5378 4.8338 14.6429 5.08462 14.6452 5.34681C14.6475 5.60901 14.5467 5.86161 14.3645 6.05021L8.70754 11.7072C8.52001 11.8947 8.2657 12 8.00054 12C7.73537 12 7.48107 11.8947 7.29354 11.7072L1.63654 6.05021C1.44907 5.86269 1.34375 5.60838 1.34375 5.34321C1.34375 5.07805 1.44907 4.82374 1.63654 4.63621Z" fill="#FEFEFE"/>
</svg>
