<svg width="13" height="19" viewBox="0 0 13 19" fill="none" xmlns="http://www.w3.org/2000/svg">
<path fill-rule="evenodd" clip-rule="evenodd" d="M1.85439 11.3309L0 12.4016L0.466916 13.2103L1.36525 12.6916C1.2463 13.2614 1.22289 13.8509 1.29988 14.4357C1.44952 15.5723 1.97002 16.6278 2.78066 17.4384C3.5913 18.2491 4.64677 18.7696 5.78338 18.9192C6.91999 19.0689 8.07421 18.8393 9.06704 18.2661C10.0599 17.6928 10.8358 16.8081 11.2745 15.7489C11.7132 14.6898 11.7902 13.5154 11.4935 12.4081C11.1968 11.3007 10.543 10.3222 9.63345 9.62433C8.73361 8.93386 7.63323 8.55624 6.4997 8.54828V8.54763C5.76442 8.54763 5.04969 8.30501 4.46636 7.8574C3.88302 7.40979 3.46368 6.78221 3.27338 6.07198C3.08307 5.36176 3.13244 4.60858 3.41382 3.92927C3.6952 3.24997 4.19286 2.68249 4.82964 2.31485C5.46641 1.94721 6.20669 1.79996 6.93568 1.89593C7.66467 1.9919 8.34162 2.32574 8.86154 2.84566C9.38146 3.36558 9.7153 4.04253 9.81127 4.77152C9.85528 5.10582 9.84814 5.44249 9.79206 5.77047L9.27861 4.88115L8.46989 5.34807L9.89455 7.81565C10.0235 8.03897 10.309 8.11549 10.5324 7.98655L10.9228 7.76115L11.0098 7.81139C11.0381 7.76245 11.0655 7.71312 11.0921 7.66341L12.9999 6.56189L12.533 5.75317L11.5924 6.29622C11.7159 5.71889 11.7411 5.12092 11.663 4.52774C11.5133 3.39113 10.9928 2.33566 10.1822 1.52502C9.37154 0.714381 8.31607 0.193879 7.17946 0.0442404C6.04285 -0.105396 4.88863 0.124194 3.8958 0.697402C2.90298 1.27061 2.12704 2.1554 1.68832 3.21455C1.24961 4.2737 1.17264 5.44802 1.46935 6.55537C1.76607 7.66272 2.41988 8.64123 3.32939 9.33912C4.22923 10.0296 5.32961 10.4072 6.46314 10.4152V10.4158C7.19842 10.4158 7.91315 10.6584 8.49648 11.1061C9.07982 11.5537 9.49916 12.1812 9.68946 12.8915C9.87977 13.6017 9.8304 14.3549 9.54902 15.0342C9.26764 15.7135 8.76998 16.281 8.13321 16.6486C7.49644 17.0162 6.75615 17.1635 6.02716 17.0675C5.29817 16.9716 4.62122 16.6377 4.1013 16.1178C3.58138 15.5979 3.24754 14.9209 3.15157 14.1919C3.10536 13.8409 3.11554 13.4873 3.17955 13.1439L3.72133 14.0823L4.53005 13.6154L3.1054 11.1478C3.04348 11.0406 2.9415 10.9623 2.82188 10.9303C2.70227 10.8982 2.57482 10.915 2.46758 10.9769L2.05863 11.213L1.95304 11.1521C1.91894 11.2111 1.88605 11.2708 1.85439 11.3309Z" fill="#FEFEFE"/>
</svg>
