<svg width="50" height="50" viewBox="0 0 50 50" fill="none" xmlns="http://www.w3.org/2000/svg">
<path d="M13.9582 43.75C12.9513 43.75 12.0575 43.4201 11.277 42.7604C10.495 42.1007 10.0173 41.2674 9.84364 40.2604L6.66656 21.1979C6.56239 20.5729 6.71031 20.009 7.11031 19.5062C7.50892 19.0021 8.03809 18.75 8.69781 18.75H41.302C41.9617 18.75 42.4909 19.0021 42.8895 19.5062C43.2895 20.009 43.4374 20.5729 43.3332 21.1979L40.1561 40.2604C39.9825 41.2674 39.5054 42.1007 38.7249 42.7604C37.9429 43.4201 37.0485 43.75 36.0416 43.75H13.9582ZM11.2499 22.9167L13.9061 39.5833H36.0936L38.7499 22.9167H11.2499ZM20.8332 31.25H29.1666C29.7568 31.25 30.252 31.05 30.652 30.65C31.0506 30.2514 31.2499 29.7569 31.2499 29.1667C31.2499 28.5764 31.0506 28.0812 30.652 27.6812C30.252 27.2826 29.7568 27.0833 29.1666 27.0833H20.8332C20.2429 27.0833 19.7485 27.2826 19.3499 27.6812C18.9499 28.0812 18.7499 28.5764 18.7499 29.1667C18.7499 29.7569 18.9499 30.2514 19.3499 30.65C19.7485 31.05 20.2429 31.25 20.8332 31.25ZM12.4999 16.6667C11.9096 16.6667 11.4145 16.4674 11.0145 16.0687C10.6159 15.6687 10.4166 15.1736 10.4166 14.5833C10.4166 13.9931 10.6159 13.4979 11.0145 13.0979C11.4145 12.6993 11.9096 12.5 12.4999 12.5H37.4999C38.0902 12.5 38.5846 12.6993 38.9832 13.0979C39.3832 13.4979 39.5832 13.9931 39.5832 14.5833C39.5832 15.1736 39.3832 15.6687 38.9832 16.0687C38.5846 16.4674 38.0902 16.6667 37.4999 16.6667H12.4999ZM16.6666 10.4167C16.0763 10.4167 15.5811 10.2167 15.1811 9.81667C14.7825 9.41806 14.5832 8.92361 14.5832 8.33333C14.5832 7.74306 14.7825 7.24792 15.1811 6.84792C15.5811 6.44931 16.0763 6.25 16.6666 6.25H33.3332C33.9235 6.25 34.4179 6.44931 34.8166 6.84792C35.2166 7.24792 35.4166 7.74306 35.4166 8.33333C35.4166 8.92361 35.2166 9.41806 34.8166 9.81667C34.4179 10.2167 33.9235 10.4167 33.3332 10.4167H16.6666ZM13.9061 39.5833H36.0936H13.9061Z" fill="#AEAEAE"/>
</svg>
