<svg width="60" height="60" viewBox="0 0 60 60" fill="none" xmlns="http://www.w3.org/2000/svg">
<path opacity="0.1" d="M59.8373 30C59.8373 46.4813 46.4769 59.8421 29.9957 59.8421C13.5144 59.8421 0.153809 46.4813 0.153809 30C0.153809 13.5188 13.5144 0.158203 29.9957 0.158203C46.4767 0.158203 59.8373 13.5188 59.8373 30Z" fill="#BEBEBE"/>
<path opacity="0.1" d="M52.5338 30.0011C52.5338 42.4487 42.4433 52.5395 29.9958 52.5395C17.5482 52.5395 7.45752 42.4487 7.45752 30.0011C7.45752 17.5536 17.5482 7.46289 29.9958 7.46289C42.4432 7.46289 52.5338 17.5536 52.5338 30.0011Z" fill="#BEBEBE"/>
<path fill-rule="evenodd" clip-rule="evenodd" d="M41.3367 10.5979L41.3365 10.598C39.6987 11.7735 38.0608 12.949 36.423 14.0733C34.2181 15.6346 32.0131 17.2271 29.8328 18.802L29.8325 18.8021L29.8294 18.8044C29.2272 19.2394 28.6268 19.673 28.0288 20.1042C27.6705 20.3598 27.4146 20.4109 27.1075 20.0531C26.6469 19.5676 26.1734 19.1076 25.7 18.6476C25.2265 18.1876 24.7531 17.7276 24.2924 17.2421C24.0365 16.9866 23.7806 16.9355 23.4223 17.0888C21.2214 18.2132 19.4811 19.7976 18.048 21.7908C17.9456 21.893 17.8432 22.0464 17.7409 22.1997C17.4021 21.7557 17.0721 21.3292 16.7472 20.9094L16.747 20.9091C16.2866 20.3141 15.8365 19.7324 15.3864 19.1331C14.9142 18.5143 14.4591 17.8956 14.0112 17.2866L14.0111 17.2865L14.0111 17.2865C13.6821 16.8392 13.357 16.3972 13.0319 15.9644C12.8784 15.7497 12.7985 15.5718 12.8366 15.3866C11.8939 16.4925 11.0561 17.6906 10.3389 18.9655L10.3448 18.963L10.3448 18.963C10.366 18.9543 10.3916 18.9437 10.4215 18.9287C12.1106 21.1519 13.8124 23.3751 15.5143 25.5984L15.5143 25.5984L15.5143 25.5984L15.5146 25.5988C17.2164 27.8219 18.9182 30.0451 20.6072 32.2682C20.5797 32.3093 20.556 32.3467 20.5339 32.3814C20.4737 32.4763 20.4262 32.5511 20.3512 32.626C19.3276 33.6993 18.3039 34.7725 17.229 35.7947C16.9219 36.1014 16.8707 36.3569 17.0755 36.7147C18.1503 38.7591 19.6347 40.4457 21.4773 41.8256C21.6426 41.9246 21.7865 42.0236 21.9504 42.1364L21.9506 42.1365C22.0404 42.1984 22.1363 42.2643 22.245 42.3367C21.8228 42.6571 21.4117 42.9664 21.0081 43.2701L21.0073 43.2707L21.0071 43.2709L21.0062 43.2716C20.1873 43.8877 19.3991 44.4807 18.611 45.0966C18.1761 45.4287 17.7411 45.748 17.3062 46.0674L17.3058 46.0677C16.8707 46.3871 16.4357 46.7065 16.0006 47.0387C15.8195 47.1938 15.6645 47.2704 15.5026 47.2621C16.5029 48.1029 17.5774 48.8582 18.7147 49.5171C20.5119 48.181 22.2937 46.8526 24.0692 45.5289C26.809 43.4863 29.5338 41.4549 32.2771 39.4235C32.7822 39.9026 33.2749 40.3818 33.7612 40.8548L33.7613 40.8549L33.762 40.8556C34.261 41.341 34.7534 41.8198 35.2458 42.2856C35.4373 42.4677 35.5817 42.619 35.6974 42.7403L35.6975 42.7404C35.9103 42.9634 36.0266 43.0852 36.1613 43.1112C36.3234 43.1424 36.5122 43.0349 36.9283 42.798C37.0341 42.7377 37.1546 42.6691 37.2931 42.5923C39.1869 41.519 40.7736 40.0368 42.0021 38.248C42.0276 38.1969 42.066 38.1458 42.1044 38.0947L42.1044 38.0946C42.1428 38.0435 42.1812 37.9924 42.2068 37.9413C42.1944 37.9413 42.188 37.9413 42.1876 37.9399C42.1872 37.9383 42.1936 37.9351 42.2068 37.9285C42.2324 37.9158 42.2836 37.8902 42.3603 37.8391C43.9747 40.0052 45.6388 42.221 47.3036 44.4375C48.1585 43.4136 48.9242 42.3128 49.5889 41.1468C48.5499 39.8114 47.6049 38.5697 46.6598 37.328C45.9825 36.4365 45.3052 35.5404 44.6265 34.6424C43.0485 32.5546 41.4629 30.4567 39.8523 28.3839C39.5452 27.975 39.5452 27.7195 39.9035 27.3617C40.3898 26.8762 40.8632 26.3907 41.3367 25.9051C41.8101 25.4196 42.2836 24.934 42.7698 24.4485C43.0257 24.193 43.1281 23.9374 42.9234 23.5796C41.7973 21.4331 40.2618 19.6442 38.2656 18.2132C38.2105 18.1765 38.1554 18.1332 38.0979 18.0881C37.9953 18.0075 37.885 17.9209 37.7538 17.8554C37.8383 17.771 37.9229 17.7021 37.9988 17.6401C38.0609 17.5895 38.1172 17.5436 38.1633 17.4977C39.1358 16.7566 40.1082 16.0283 41.0807 15.3C42.0532 14.5717 43.0257 13.8433 43.9982 13.1023C44.2528 12.8904 44.4722 12.784 44.7438 12.9575C43.6756 12.0322 42.5194 11.2057 41.2896 10.4922C41.295 10.5399 41.3076 10.5689 41.3367 10.5979ZM45.5525 13.6927C45.9219 14.0485 46.2772 14.4111 46.6183 14.7804C46.2753 14.406 45.9198 14.0432 45.5525 13.6927Z" fill="#FEFEFE"/>
</svg>
