<svg width="30" height="30" viewBox="0 0 30 30" fill="none" xmlns="http://www.w3.org/2000/svg">
<path d="M26.25 8.18112C25.4464 8.5255 24.5281 8.7551 23.6097 8.8699C24.5281 8.29592 25.3316 7.37756 25.676 6.34439C24.7577 6.91837 23.8393 7.26276 22.6913 7.49235C21.8878 6.57398 20.625 6 19.3622 6C16.8367 6 14.7704 8.06633 14.7704 10.5918C14.7704 10.9362 14.7704 11.2806 14.8852 11.625C11.0969 11.3954 7.65306 9.55867 5.35714 6.80357C5.01275 7.49234 4.78316 8.29592 4.78316 9.09949C4.78316 10.7066 5.58673 12.0842 6.84949 12.8878C6.04592 12.8878 5.35714 12.6582 4.78316 12.3138C4.78316 14.4949 6.3903 16.4464 8.45662 16.7908C8.11224 16.9056 7.65306 16.9056 7.19388 16.9056C6.84949 16.9056 6.6199 16.9056 6.27551 16.7908C6.84949 18.6276 8.57143 20.0051 10.6378 20.0051C9.03061 21.2679 7.07908 21.9566 4.89796 21.9566C4.55357 21.9566 4.20918 21.9566 3.75 21.8418C5.81633 23.1046 8.22704 23.9082 10.8673 23.9082C19.3622 23.9082 23.9541 16.9056 23.9541 10.8214V10.2474C24.8724 9.90306 25.676 9.09948 26.25 8.18112Z" fill="#55ACE3"/>
</svg>
