<svg width="30" height="30" viewBox="0 0 30 30" fill="none" xmlns="http://www.w3.org/2000/svg">
<path d="M23.4633 9.4C21.9152 8.19998 20.0574 7.60001 18.0964 7.5L17.7867 7.80002C19.5413 8.19998 21.0895 8.99997 22.5344 10.1C20.7798 9.19999 18.8188 8.60001 16.7546 8.4C16.1353 8.29999 15.6192 8.29999 15 8.29999C14.3808 8.29999 13.8647 8.29999 13.2454 8.4C11.1812 8.60001 9.22017 9.19999 7.46559 10.1C8.91052 8.99997 10.4587 8.19998 12.2133 7.80002L11.9036 7.5C9.94263 7.60001 8.08484 8.19998 6.5367 9.4C4.78211 12.6 3.85321 16.2 3.75 19.8999C5.29814 21.5 7.46559 22.5 9.73627 22.5C9.73627 22.5 10.4587 21.7 10.9748 21C9.63305 20.7 8.39449 20 7.56881 18.9C8.29127 19.3 9.01373 19.7 9.73627 20C10.6652 20.4 11.5941 20.6 12.523 20.8C13.3486 20.9 14.1743 21 15 21C15.8257 21 16.6514 20.9 17.477 20.8C18.4059 20.6 19.3348 20.4 20.2637 20C20.9863 19.7 21.7087 19.3 22.4312 18.9C21.6055 20 20.367 20.7 19.0253 21C19.5413 21.7 20.2637 22.5 20.2637 22.5C22.5344 22.5 24.7019 21.5 26.25 19.8999C26.1468 16.2 25.2179 12.6 23.4633 9.4ZM11.5941 18.1C10.5619 18.1 9.63305 17.2 9.63305 16.1C9.63305 15 10.5619 14.1 11.5941 14.1C12.6262 14.1 13.5551 15 13.5551 16.1C13.5551 17.2 12.6262 18.1 11.5941 18.1ZM18.4059 18.1C17.3738 18.1 16.4449 17.2 16.4449 16.1C16.4449 15 17.3738 14.1 18.4059 14.1C19.4381 14.1 20.367 15 20.367 16.1C20.367 17.2 19.4381 18.1 18.4059 18.1Z" fill="#7289DA"/>
</svg>
