<svg width="16" height="16" viewBox="0 0 16 16" fill="none" xmlns="http://www.w3.org/2000/svg">
<g opacity="0.5">
<path d="M5.66666 9.33334H6.19333L6.38 9.15334C5.70408 8.36935 5.3326 7.36846 5.33333 6.33334C5.33333 5.47628 5.58748 4.63848 6.06363 3.92586C6.53978 3.21325 7.21656 2.65784 8.00837 2.32986C8.80018 2.00188 9.67147 1.91606 10.5121 2.08327C11.3526 2.25047 12.1248 2.66318 12.7308 3.26921C13.3368 3.87523 13.7495 4.64736 13.9167 5.48794C14.0839 6.32853 13.9981 7.19982 13.6701 7.99163C13.3422 8.78344 12.7867 9.46022 12.0741 9.93637C11.3615 10.4125 10.5237 10.6667 9.66666 10.6667C8.59333 10.6667 7.60666 10.2733 6.84666 9.62L6.66666 9.80667V10.3333L3.33333 13.66L2.34 12.6667L5.66666 9.33334ZM9.66666 9.33334C11.3267 9.33334 12.6667 7.99334 12.6667 6.33334C12.6667 4.67334 11.3267 3.33334 9.66666 3.33334C8.00666 3.33334 6.66666 4.67334 6.66666 6.33334C6.66666 7.99334 8.00666 9.33334 9.66666 9.33334Z" fill="#111111"/>
</g>
</svg>
