<svg width="16" height="20" viewBox="0 0 16 20" fill="none" xmlns="http://www.w3.org/2000/svg">
<path d="M0 3.25C0 2.38805 0.34241 1.5614 0.951903 0.951903C1.5614 0.34241 2.38805 0 3.25 0H12.75C13.612 0 14.4386 0.34241 15.0481 0.951903C15.6576 1.5614 16 2.38805 16 3.25V16.75C16 17.1768 15.9159 17.5994 15.7526 17.9937C15.5893 18.388 15.3499 18.7463 15.0481 19.0481C14.7463 19.3499 14.388 19.5893 13.9937 19.7526C13.5994 19.9159 13.1768 20 12.75 20H3.25C2.8232 20 2.40059 19.9159 2.00628 19.7526C1.61197 19.5893 1.25369 19.3499 0.951903 19.0481C0.650112 18.7463 0.410719 18.388 0.247392 17.9937C0.0840639 17.5994 0 17.1768 0 16.75V3.25ZM5 3C4.46957 3 3.96086 3.21071 3.58579 3.58579C3.21071 3.96086 3 4.46957 3 5V6C3 6.53043 3.21071 7.03914 3.58579 7.41421C3.96086 7.78929 4.46957 8 5 8H11C11.5304 8 12.0391 7.78929 12.4142 7.41421C12.7893 7.03914 13 6.53043 13 6V5C13 4.46957 12.7893 3.96086 12.4142 3.58579C12.0391 3.21071 11.5304 3 11 3H5ZM5.5 11.25C5.5 10.9185 5.3683 10.6005 5.13388 10.3661C4.89946 10.1317 4.58152 10 4.25 10C3.91848 10 3.60054 10.1317 3.36612 10.3661C3.1317 10.6005 3 10.9185 3 11.25C3 11.5815 3.1317 11.8995 3.36612 12.1339C3.60054 12.3683 3.91848 12.5 4.25 12.5C4.58152 12.5 4.89946 12.3683 5.13388 12.1339C5.3683 11.8995 5.5 11.5815 5.5 11.25ZM4.25 16.5C4.58152 16.5 4.89946 16.3683 5.13388 16.1339C5.3683 15.8995 5.5 15.5815 5.5 15.25C5.5 14.9185 5.3683 14.6005 5.13388 14.3661C4.89946 14.1317 4.58152 14 4.25 14C3.91848 14 3.60054 14.1317 3.36612 14.3661C3.1317 14.6005 3 14.9185 3 15.25C3 15.5815 3.1317 15.8995 3.36612 16.1339C3.60054 16.3683 3.91848 16.5 4.25 16.5ZM13 11.25C13 10.9185 12.8683 10.6005 12.6339 10.3661C12.3995 10.1317 12.0815 10 11.75 10C11.4185 10 11.1005 10.1317 10.8661 10.3661C10.6317 10.6005 10.5 10.9185 10.5 11.25C10.5 11.5815 10.6317 11.8995 10.8661 12.1339C11.1005 12.3683 11.4185 12.5 11.75 12.5C12.0815 12.5 12.3995 12.3683 12.6339 12.1339C12.8683 11.8995 13 11.5815 13 11.25ZM11.75 16.5C12.0815 16.5 12.3995 16.3683 12.6339 16.1339C12.8683 15.8995 13 15.5815 13 15.25C13 14.9185 12.8683 14.6005 12.6339 14.3661C12.3995 14.1317 12.0815 14 11.75 14C11.4185 14 11.1005 14.1317 10.8661 14.3661C10.6317 14.6005 10.5 14.9185 10.5 15.25C10.5 15.5815 10.6317 15.8995 10.8661 16.1339C11.1005 16.3683 11.4185 16.5 11.75 16.5ZM9.25 11.25C9.25 10.9185 9.1183 10.6005 8.88388 10.3661C8.64946 10.1317 8.33152 10 8 10C7.66848 10 7.35054 10.1317 7.11612 10.3661C6.8817 10.6005 6.75 10.9185 6.75 11.25C6.75 11.5815 6.8817 11.8995 7.11612 12.1339C7.35054 12.3683 7.66848 12.5 8 12.5C8.33152 12.5 8.64946 12.3683 8.88388 12.1339C9.1183 11.8995 9.25 11.5815 9.25 11.25ZM8 16.5C8.33152 16.5 8.64946 16.3683 8.88388 16.1339C9.1183 15.8995 9.25 15.5815 9.25 15.25C9.25 14.9185 9.1183 14.6005 8.88388 14.3661C8.64946 14.1317 8.33152 14 8 14C7.66848 14 7.35054 14.1317 7.11612 14.3661C6.8817 14.6005 6.75 14.9185 6.75 15.25C6.75 15.5815 6.8817 15.8995 7.11612 16.1339C7.35054 16.3683 7.66848 16.5 8 16.5Z" fill="#FEFEFE"/>
</svg>
