<svg width="6" height="8" viewBox="0 0 6 8" fill="none" xmlns="http://www.w3.org/2000/svg">
<path fill-rule="evenodd" clip-rule="evenodd" d="M0.782179 4.78031L0 5.2319L0.196964 5.57305L0.575892 5.35428C0.525735 5.59459 0.51587 5.84322 0.548344 6.08988C0.611467 6.56935 0.831035 7.01459 1.173 7.35655C1.51496 7.69851 1.9602 7.91808 2.43966 7.9812C2.91913 8.04433 3.40603 7.94748 3.82484 7.70567C4.24366 7.46387 4.57098 7.09063 4.75605 6.64384C4.94112 6.19704 4.97358 5.70167 4.84842 5.23454C4.72325 4.76742 4.44745 4.35465 4.06378 4.06025C3.68435 3.7691 3.22041 3.60982 2.74246 3.60633V3.60605C2.43229 3.60605 2.13079 3.5037 1.88472 3.31488C1.63864 3.12606 1.46175 2.86132 1.38147 2.56172C1.30119 2.26212 1.32202 1.9444 1.44071 1.65784C1.55941 1.37128 1.76935 1.13189 2.03796 0.976808C2.30658 0.821723 2.61886 0.759606 2.92638 0.800091C3.23389 0.840577 3.51946 0.981402 3.73878 1.20073C3.95811 1.42005 4.09893 1.70561 4.13942 2.01313C4.15798 2.15412 4.15497 2.29612 4.13133 2.43445L3.91472 2.05928L3.57357 2.25624L4.17455 3.29716C4.22894 3.39137 4.3494 3.42365 4.4436 3.36926L4.6082 3.27423L4.645 3.29547C4.65695 3.27478 4.66855 3.25392 4.67979 3.2329L5.48453 2.76828L5.28756 2.42713L4.89081 2.65619C4.94285 2.41269 4.95347 2.16048 4.92053 1.9103C4.85741 1.43083 4.63784 0.985586 4.29588 0.643627C3.95392 0.301666 3.50868 0.0820977 3.02921 0.0189747C2.54975 -0.0441484 2.06285 0.0527016 1.64403 0.294504C1.22522 0.536306 0.897896 0.909548 0.712828 1.35634C0.52776 1.80313 0.495292 2.29851 0.620458 2.76563C0.745624 3.23276 1.02143 3.64553 1.4051 3.93993C1.78452 4.23107 2.24846 4.39036 2.72641 4.39385V4.39413C3.03658 4.39413 3.33809 4.49647 3.58416 4.68529C3.83024 4.87411 4.00713 5.13885 4.08741 5.43846C4.16769 5.73806 4.14686 6.05578 4.02816 6.34234C3.90947 6.6289 3.69953 6.86828 3.43092 7.02337C3.1623 7.17845 2.85002 7.24057 2.5425 7.20009C2.23498 7.1596 1.94942 7.01878 1.73009 6.79945C1.51077 6.58013 1.36995 6.29456 1.32946 5.98705C1.30997 5.83901 1.31426 5.68987 1.34125 5.54503L1.56981 5.94091L1.91096 5.74394L1.30998 4.70302C1.28386 4.65778 1.24084 4.62477 1.19038 4.61125C1.13993 4.59773 1.08616 4.6048 1.04092 4.63092L0.868505 4.73047L0.823873 4.7047C0.809459 4.72967 0.79556 4.75488 0.782179 4.78031Z" fill="#FEFEFE"/>
</svg>
