<svg width="24" height="24" viewBox="0 0 24 24" fill="none" xmlns="http://www.w3.org/2000/svg">
<g opacity="0.5">
<path d="M8.5 14H9.29L9.57 13.73C8.55612 12.554 7.99889 11.0527 8 9.5C8 8.21442 8.38122 6.95772 9.09544 5.8888C9.80967 4.81988 10.8248 3.98676 12.0126 3.49479C13.2003 3.00282 14.5072 2.87409 15.7681 3.1249C17.029 3.3757 18.1872 3.99477 19.0962 4.90381C20.0052 5.81285 20.6243 6.97104 20.8751 8.23192C21.1259 9.49279 20.9972 10.7997 20.5052 11.9874C20.0132 13.1752 19.1801 14.1903 18.1112 14.9046C17.0423 15.6188 15.7856 16 14.5 16C12.89 16 11.41 15.41 10.27 14.43L10 14.71V15.5L5 20.49L3.51 19L8.5 14ZM14.5 14C16.99 14 19 11.99 19 9.5C19 7.01 16.99 5 14.5 5C12.01 5 10 7.01 10 9.5C10 11.99 12.01 14 14.5 14Z" fill="#111111"/>
</g>
</svg>
