<svg width="16" height="16" viewBox="0 0 16 16" fill="none" xmlns="http://www.w3.org/2000/svg">
<path d="M1.63556 5.29246C1.82309 5.10499 2.0774 4.99968 2.34256 4.99968C2.60772 4.99968 2.86203 5.10499 3.04956 5.29246L7.99956 10.2425L12.9496 5.29246C13.1382 5.11031 13.3908 5.00951 13.653 5.01179C13.9152 5.01407 14.166 5.11924 14.3514 5.30465C14.5368 5.49005 14.642 5.74087 14.6442 6.00306C14.6465 6.26526 14.5457 6.51786 14.3636 6.70646L8.70656 12.3635C8.51903 12.5509 8.26472 12.6562 7.99956 12.6562C7.7344 12.6562 7.48009 12.5509 7.29256 12.3635L1.63556 6.70646C1.44809 6.51894 1.34277 6.26463 1.34277 5.99946C1.34277 5.7343 1.44809 5.47999 1.63556 5.29246Z" fill="#111111"/>
</svg>
