<svg width="25" height="22" viewBox="0 0 25 22" fill="none" xmlns="http://www.w3.org/2000/svg">
<path d="M14.0315 0.886435C13.8768 0.617051 13.6539 0.393239 13.385 0.237598C13.1162 0.081958 12.8111 0 12.5005 0C12.1899 0 11.8848 0.081958 11.616 0.237598C11.3471 0.393239 11.1242 0.617051 10.9695 0.886435L0.257302 19.113C-0.456637 20.3284 0.399465 21.8734 1.78829 21.8734H23.2111C24.6 21.8734 25.4576 20.3268 24.7421 19.113L14.0315 0.886435ZM12.4974 6.25113C13.3332 6.25113 13.9877 6.97288 13.9034 7.80555L13.3566 13.2843C13.3382 13.4995 13.2397 13.7 13.0806 13.8461C12.9215 13.9922 12.7134 14.0733 12.4974 14.0733C12.2814 14.0733 12.0732 13.9922 11.9141 13.8461C11.755 13.7 11.6565 13.4995 11.6381 13.2843L11.0914 7.80555C11.0717 7.60907 11.0935 7.41066 11.1552 7.2231C11.2169 7.03553 11.3172 6.86298 11.4497 6.71654C11.5821 6.5701 11.7438 6.45303 11.9242 6.37287C12.1047 6.29271 12.2999 6.25124 12.4974 6.25113ZM12.5005 15.6245C12.9148 15.6245 13.3122 15.7891 13.6052 16.0821C13.8981 16.3751 14.0627 16.7724 14.0627 17.1867C14.0627 17.6011 13.8981 17.9984 13.6052 18.2914C13.3122 18.5844 12.9148 18.749 12.5005 18.749C12.0862 18.749 11.6888 18.5844 11.3958 18.2914C11.1029 17.9984 10.9383 17.6011 10.9383 17.1867C10.9383 16.7724 11.1029 16.3751 11.3958 16.0821C11.6888 15.7891 12.0862 15.6245 12.5005 15.6245Z" fill="#111111"/>
</svg>
