<svg width="12" height="12" viewBox="0 0 12 12" fill="none" xmlns="http://www.w3.org/2000/svg">
<path d="M4.5 9C4.225 9 3.98967 8.90217 3.794 8.7065C3.598 8.5105 3.5 8.275 3.5 8V2C3.5 1.725 3.598 1.4895 3.794 1.2935C3.98967 1.09783 4.225 1 4.5 1H9C9.275 1 9.5105 1.09783 9.7065 1.2935C9.90217 1.4895 10 1.725 10 2V8C10 8.275 9.90217 8.5105 9.7065 8.7065C9.5105 8.90217 9.275 9 9 9H4.5ZM2.5 11C2.225 11 1.9895 10.9022 1.7935 10.7065C1.59783 10.5105 1.5 10.275 1.5 10V3.5C1.5 3.35833 1.548 3.2395 1.644 3.1435C1.73967 3.04783 1.85833 3 2 3C2.14167 3 2.2605 3.04783 2.3565 3.1435C2.45217 3.2395 2.5 3.35833 2.5 3.5V10H7.5C7.64167 10 7.7605 10.048 7.8565 10.144C7.95217 10.2397 8 10.3583 8 10.5C8 10.6417 7.95217 10.7603 7.8565 10.856C7.7605 10.952 7.64167 11 7.5 11H2.5Z" fill="#737373"/>
</svg>
