<svg width="60" height="60" viewBox="0 0 60 60" fill="none" xmlns="http://www.w3.org/2000/svg">
<path d="M30.0002 50.7689C41.4707 50.7689 50.7694 41.4702 50.7694 29.9997C50.7694 18.5292 41.4707 9.23047 30.0002 9.23047C18.5297 9.23047 9.23096 18.5292 9.23096 29.9997C9.23096 41.4702 18.5297 50.7689 30.0002 50.7689Z" fill="#FEFEFE"/>
<path d="M47.3119 41.1287H39.1151V30L30.0002 38.9935L20.8854 30V41.1287H12.6886H12.4263C16.0984 46.8871 22.5903 50.7692 30.0002 50.7692C37.4101 50.7692 43.902 46.9518 47.5742 41.1287H47.3119Z" fill="#4C4C4C"/>
<path d="M16.569 36.3902V19.2776L30.0002 32.5658L43.4314 19.2776V36.3902H49.6556C50.3763 34.316 50.7694 32.1121 50.7694 29.7785C50.7694 18.435 41.4659 9.23047 30.0002 9.23047C18.5345 9.23047 9.23096 18.435 9.23096 29.7785C9.23096 32.1121 9.62407 34.316 10.3448 36.3902H16.569Z" fill="#FF6B01"/>
<path opacity="0.1" d="M59.8373 30C59.8373 46.4813 46.4769 59.8421 29.9957 59.8421C13.5144 59.8421 0.153809 46.4813 0.153809 30C0.153809 13.5188 13.5144 0.158203 29.9957 0.158203C46.4767 0.158203 59.8373 13.5188 59.8373 30Z" fill="#BEBEBE"/>
</svg>
