<svg width="16" height="27" viewBox="0 0 16 27" fill="none" xmlns="http://www.w3.org/2000/svg">
<path fill-rule="evenodd" clip-rule="evenodd" d="M7.70937 0H8.03729C8.49389 0.420051 8.9318 0.869959 9.25453 1.40223C10.2134 2.93933 10.8516 4.68851 11.027 6.49226C11.1515 7.26545 11.1639 8.06849 10.9595 8.82931C10.7561 9.77134 10.1916 10.5703 9.69556 11.3785C8.43889 13.1596 6.93939 14.78 5.92346 16.7187C5.46168 17.672 5.18253 18.7108 5.13687 19.7682C5.26659 20.3035 5.27489 20.8615 5.43781 21.3907C5.64328 22.0187 5.80309 22.6684 6.13619 23.2459C6.44439 23.9265 6.87401 24.5452 7.15316 25.2391C7.11891 25.2824 7.04938 25.3678 7.0141 25.411C5.87365 25.4255 4.81207 24.8747 3.89369 24.2487C3.26172 23.8564 2.79474 23.2717 2.25824 22.7713C1.16864 21.5534 0.407996 20.0451 0.118473 18.439C-0.0963348 17.184 -0.0195438 15.8796 0.352997 14.6606C0.929967 12.6695 2.28626 11.015 3.77954 9.61485C4.56613 8.73769 5.36621 7.8564 5.97327 6.84128C6.42675 6.02177 6.85533 5.18063 7.12929 4.28185C7.49872 2.88682 7.74984 1.4465 7.70937 0Z" fill="#111111"/>
<path fill-rule="evenodd" clip-rule="evenodd" d="M12.4277 11.2403C12.4732 11.2094 12.5642 11.1487 12.6107 11.1178C13.3021 11.8689 14.0682 12.5658 14.5544 13.4949C14.7131 13.8198 14.9617 14.0969 15.0537 14.4559C16.2151 16.9278 16.1595 19.9964 14.8597 22.3948C14.4988 23.0863 13.9995 23.6809 13.5042 24.2669C12.9543 24.7453 12.4378 25.2961 11.7778 25.6073C11.1673 25.9163 10.5649 26.3329 10.2677 26.9998C9.97054 26.9306 9.80882 26.644 9.63598 26.4096C8.8597 25.4773 8.19057 24.367 8.00762 23.1236C7.89239 22.7177 7.96921 22.2904 7.949 21.8738C7.88026 20.8094 8.26739 19.7993 8.60297 18.8169C8.88699 18.2608 9.10835 17.6684 9.43281 17.1367C9.91798 16.2545 10.5214 15.4532 11.0268 14.5848C11.4443 13.8571 11.7849 13.0868 12.1397 12.3239C12.265 11.9723 12.3954 11.6185 12.4277 11.2403Z" fill="#2EA7E0"/>
</svg>
