<svg width="303" height="96" viewBox="0 0 303 96" fill="none" xmlns="http://www.w3.org/2000/svg">
<rect y="40.112" width="32.0896" height="32.0896" rx="16" fill="#989A9C" fill-opacity="0.3"/>
<path d="M15.1296 63.4714L8.51116 56.8529C8.41088 56.7526 8.33968 56.644 8.29756 56.527C8.25611 56.41 8.23539 56.2847 8.23539 56.1509C8.23539 56.0172 8.25611 55.8919 8.29756 55.7749C8.33968 55.6579 8.41088 55.5493 8.51116 55.449L15.1296 48.8305C15.3135 48.6467 15.5431 48.5504 15.8186 48.5417C16.0947 48.5337 16.333 48.63 16.5335 48.8305C16.7341 49.0144 16.8387 49.244 16.8474 49.5194C16.8554 49.7955 16.7592 50.0339 16.5586 50.2344L11.6449 55.1481H22.8512C23.1353 55.1481 23.3736 55.2441 23.5662 55.436C23.758 55.6285 23.854 55.8668 23.854 56.1509C23.854 56.4351 23.758 56.6731 23.5662 56.8649C23.3736 57.0575 23.1353 57.1537 22.8512 57.1537H11.6449L16.5586 62.0675C16.7425 62.2513 16.8387 62.4853 16.8474 62.7694C16.8554 63.0535 16.7592 63.2875 16.5586 63.4714C16.3748 63.6719 16.1408 63.7722 15.8567 63.7722C15.5725 63.7722 15.3302 63.6719 15.1296 63.4714Z" fill="#111111"/>
<path d="M15.1296 23.3594L8.51116 16.7409C8.41088 16.6407 8.33968 16.532 8.29756 16.415C8.25611 16.298 8.23539 16.1727 8.23539 16.039C8.23539 15.9053 8.25611 15.7799 8.29756 15.6629C8.33968 15.5459 8.41088 15.4373 8.51116 15.337L15.1296 8.71856C15.3135 8.53471 15.5431 8.43844 15.8186 8.42975C16.0947 8.42173 16.333 8.518 16.5335 8.71856C16.7341 8.9024 16.8387 9.13204 16.8474 9.40748C16.8554 9.68358 16.7592 9.92192 16.5586 10.1225L11.6449 15.0362H22.8512C23.1353 15.0362 23.3736 15.1321 23.5662 15.324C23.758 15.5165 23.854 15.7549 23.854 16.039C23.854 16.3231 23.758 16.5611 23.5662 16.753C23.3736 16.9455 23.1353 17.0418 22.8512 17.0418H11.6449L16.5586 21.9555C16.7425 22.1393 16.8387 22.3733 16.8474 22.6575C16.8554 22.9416 16.7592 23.1756 16.5586 23.3594C16.3748 23.56 16.1408 23.6603 15.8567 23.6603C15.5725 23.6603 15.3302 23.56 15.1296 23.3594Z" fill="#111111"/>
<rect x="60.1679" y="40.112" width="32.0896" height="32.0896" rx="16" fill="#989A9C" fill-opacity="0.3"/>
<path d="M74.533 48.4522C74.9602 46.6913 77.4652 46.6913 77.8924 48.4522C77.9565 48.7168 78.0822 48.9624 78.2591 49.1692C78.4361 49.376 78.6594 49.5381 78.9109 49.6423C79.1624 49.7465 79.4349 49.7898 79.7063 49.7688C79.9776 49.7477 80.2402 49.6629 80.4726 49.5212C82.0199 48.5786 83.7919 50.3495 82.8492 51.8979C82.7077 52.1302 82.6231 52.3926 82.6021 52.6638C82.5811 52.935 82.6244 53.2073 82.7284 53.4586C82.8325 53.7099 82.9944 53.9331 83.2009 54.1101C83.4075 54.287 83.6529 54.4128 83.9172 54.4771C85.6781 54.9042 85.6781 57.4092 83.9172 57.8364C83.6527 57.9005 83.407 58.0262 83.2002 58.2032C82.9934 58.3801 82.8313 58.6035 82.7272 58.8549C82.623 59.1064 82.5796 59.3789 82.6007 59.6503C82.6217 59.9217 82.7065 60.1842 82.8482 60.4166C83.7909 61.9639 82.0199 63.7359 80.4716 62.7933C80.2393 62.6518 79.9769 62.5671 79.7057 62.5461C79.4345 62.5251 79.1622 62.5684 78.9109 62.6725C78.6596 62.7765 78.4363 62.9384 78.2594 63.145C78.0824 63.3515 77.9567 63.5969 77.8924 63.8612C77.4652 65.6222 74.9602 65.6222 74.533 63.8612C74.4689 63.5967 74.3433 63.351 74.1663 63.1442C73.9893 62.9374 73.766 62.7754 73.5145 62.6712C73.2631 62.567 72.9906 62.5237 72.7192 62.5447C72.4478 62.5657 72.1852 62.6506 71.9528 62.7923C70.4055 63.7349 68.6336 61.9639 69.5762 60.4156C69.7177 60.1833 69.8024 59.9209 69.8234 59.6497C69.8444 59.3785 69.8011 59.1062 69.697 58.8549C69.5929 58.6036 69.431 58.3804 69.2245 58.2034C69.0179 58.0264 68.7725 57.9007 68.5082 57.8364C66.7473 57.4092 66.7473 54.9042 68.5082 54.4771C68.7728 54.413 69.0184 54.2873 69.2252 54.1103C69.432 53.9333 69.5941 53.71 69.6983 53.4586C69.8025 53.2071 69.8458 52.9346 69.8248 52.6632C69.8037 52.3918 69.7189 52.1293 69.5772 51.8968C68.6346 50.3495 70.4055 48.5776 71.9538 49.5202C72.9566 50.1299 74.2563 49.5904 74.533 48.4522Z" stroke="#111111" stroke-width="2" stroke-linecap="round" stroke-linejoin="round"/>
<path d="M80.2239 56.1567C80.2239 58.3721 78.428 60.1679 76.2127 60.1679C73.9974 60.1679 72.2015 58.3721 72.2015 56.1567C72.2015 53.9414 73.9974 52.1455 76.2127 52.1455C78.428 52.1455 80.2239 53.9414 80.2239 56.1567ZM74.1974 56.1567C74.1974 57.2697 75.0997 58.172 76.2127 58.172C77.3257 58.172 78.228 57.2697 78.228 56.1567C78.228 55.0437 77.3257 54.1415 76.2127 54.1415C75.0997 54.1415 74.1974 55.0437 74.1974 56.1567Z" fill="#111111"/>
<path d="M74.533 8.34028C74.9602 6.57936 77.4652 6.57936 77.8924 8.34028C77.9565 8.60482 78.0822 8.85048 78.2591 9.05728C78.4361 9.26408 78.6594 9.42616 78.9109 9.53035C79.1624 9.63453 79.4349 9.67786 79.7063 9.65682C79.9776 9.63578 80.2402 9.55096 80.4726 9.40926C82.0199 8.46663 83.7919 10.2376 82.8492 11.7859C82.7077 12.0182 82.6231 12.2806 82.6021 12.5518C82.5811 12.823 82.6244 13.0953 82.7284 13.3466C82.8325 13.5979 82.9944 13.8212 83.2009 13.9981C83.4075 14.1751 83.6529 14.3008 83.9172 14.3651C85.6781 14.7923 85.6781 17.2973 83.9172 17.7245C83.6527 17.7886 83.407 17.9142 83.2002 18.0912C82.9934 18.2682 82.8313 18.4915 82.7272 18.743C82.623 18.9944 82.5796 19.2669 82.6007 19.5383C82.6217 19.8097 82.7065 20.0723 82.8482 20.3047C83.7909 21.852 82.0199 23.6239 80.4716 22.6813C80.2393 22.5398 79.9769 22.4551 79.7057 22.4341C79.4345 22.4131 79.1622 22.4564 78.9109 22.5605C78.6596 22.6646 78.4363 22.8265 78.2594 23.033C78.0824 23.2396 77.9567 23.485 77.8924 23.7493C77.4652 25.5102 74.9602 25.5102 74.533 23.7493C74.4689 23.4847 74.3433 23.2391 74.1663 23.0323C73.9893 22.8255 73.766 22.6634 73.5145 22.5592C73.2631 22.455 72.9906 22.4117 72.7192 22.4327C72.4478 22.4538 72.1852 22.5386 71.9528 22.6803C70.4055 23.6229 68.6336 21.852 69.5762 20.3037C69.7177 20.0714 69.8024 19.809 69.8234 19.5378C69.8444 19.2666 69.8011 18.9942 69.697 18.7429C69.5929 18.4916 69.431 18.2684 69.2245 18.0914C69.0179 17.9145 68.7725 17.7887 68.5082 17.7245C66.7473 17.2973 66.7473 14.7923 68.5082 14.3651C68.7728 14.301 69.0184 14.1753 69.2252 13.9984C69.432 13.8214 69.5941 13.5981 69.6983 13.3466C69.8025 13.0951 69.8458 12.8226 69.8248 12.5512C69.8037 12.2799 69.7189 12.0173 69.5772 11.7849C68.6346 10.2376 70.4055 8.46563 71.9538 9.40826C72.9566 10.018 74.2563 9.47846 74.533 8.34028Z" stroke="#111111" stroke-width="2" stroke-linecap="round" stroke-linejoin="round"/>
<path d="M80.2239 16.0448C80.2239 18.2601 78.428 20.056 76.2127 20.056C73.9974 20.056 72.2015 18.2601 72.2015 16.0448C72.2015 13.8295 73.9974 12.0336 76.2127 12.0336C78.428 12.0336 80.2239 13.8295 80.2239 16.0448ZM74.1974 16.0448C74.1974 17.1578 75.0997 18.0601 76.2127 18.0601C77.3257 18.0601 78.228 17.1578 78.228 16.0448C78.228 14.9318 77.3257 14.0295 76.2127 14.0295C75.0997 14.0295 74.1974 14.9318 74.1974 16.0448Z" fill="#111111"/>
<rect x="137.383" width="30.084" height="30.084" rx="8" fill="#FEFEFE"/>
<rect x="137.883" y="0.5" width="29.084" height="29.084" rx="7.5" stroke="#848484" stroke-opacity="0.3"/>
<rect x="137.383" y="47.1315" width="30.084" height="30.084" rx="8" fill="#CECFD0"/>
<rect x="137.883" y="47.6315" width="29.084" height="29.084" rx="7.5" stroke="#848484" stroke-opacity="0.3"/>
<rect x="187.523" width="30.084" height="30.084" rx="8" fill="#FEFEFE"/>
<rect x="188.023" y="0.5" width="29.084" height="29.084" rx="7.5" stroke="#848484" stroke-opacity="0.3"/>
<rect x="187.523" y="47.1315" width="30.084" height="30.084" rx="8" fill="#CECFD0"/>
<rect x="188.023" y="47.6315" width="29.084" height="29.084" rx="7.5" stroke="#848484" stroke-opacity="0.3"/>
<path d="M158.442 16.0448H153.428V21.0588C153.428 21.3247 153.323 21.5798 153.135 21.7679C152.946 21.9559 152.691 22.0616 152.425 22.0616C152.159 22.0616 151.904 21.9559 151.716 21.7679C151.528 21.5798 151.423 21.3247 151.423 21.0588V16.0448H146.409C146.143 16.0448 145.888 15.9391 145.7 15.7511C145.511 15.563 145.406 15.3079 145.406 15.042C145.406 14.776 145.511 14.521 145.7 14.3329C145.888 14.1448 146.143 14.0392 146.409 14.0392H151.423V9.02519C151.423 8.75923 151.528 8.50417 151.716 8.3161C151.904 8.12804 152.159 8.02239 152.425 8.02239C152.691 8.02239 152.946 8.12804 153.135 8.3161C153.323 8.50417 153.428 8.75923 153.428 9.02519V14.0392H158.442C158.708 14.0392 158.963 14.1448 159.151 14.3329C159.339 14.521 159.445 14.776 159.445 15.042C159.445 15.3079 159.339 15.563 159.151 15.7511C158.963 15.9391 158.708 16.0448 158.442 16.0448Z" fill="#111111"/>
<path d="M158.442 63.1763H153.428V68.1903C153.428 68.4563 153.323 68.7114 153.135 68.8994C152.946 69.0875 152.691 69.1931 152.425 69.1931C152.159 69.1931 151.904 69.0875 151.716 68.8994C151.528 68.7114 151.423 68.4563 151.423 68.1903V63.1763H146.409C146.143 63.1763 145.888 63.0707 145.7 62.8826C145.511 62.6946 145.406 62.4395 145.406 62.1735C145.406 61.9076 145.511 61.6525 145.7 61.4644C145.888 61.2764 146.143 61.1707 146.409 61.1707H151.423V56.1567C151.423 55.8908 151.528 55.6357 151.716 55.4477C151.904 55.2596 152.159 55.1539 152.425 55.1539C152.691 55.1539 152.946 55.2596 153.135 55.4477C153.323 55.6357 153.428 55.8908 153.428 56.1567V61.1707H158.442C158.708 61.1707 158.963 61.2764 159.151 61.4644C159.339 61.6525 159.445 61.9076 159.445 62.1735C159.445 62.4395 159.339 62.6946 159.151 62.8826C158.963 63.0707 158.708 63.1763 158.442 63.1763Z" fill="#111111"/>
<path d="M169.486 84.9912L169.487 84.9912L169.491 84.9897L173.637 83.6607L174.564 83.3635L173.784 82.7813L161.75 73.8052L160.949 73.2076V74.2071V90.129V91.2251L161.779 90.5084L165.359 87.4132C165.421 87.3632 165.47 87.3512 165.51 87.3512L165.527 87.3512L165.538 87.3513C165.539 87.3513 165.539 87.3513 165.54 87.3514L165.541 87.3517L165.553 87.3541C165.618 87.3676 165.686 87.4106 165.74 87.5092L165.74 87.5092L165.741 87.5119L169.581 94.5044L169.844 94.9844L170.299 94.6797L172.832 92.9833L173.214 92.7277L172.993 92.3252L169.317 85.6373C169.255 85.5185 169.24 85.3638 169.286 85.2241C169.338 85.0809 169.432 85.0079 169.486 84.9912Z" fill="#FEFEFE" stroke="#333333"/>
<path d="M24.0807 77.9716L24.0807 77.9716L24.0853 77.9701L28.2314 76.6411L29.1586 76.3439L28.3782 75.7617L16.3446 66.7856L15.5434 66.188V67.1875V83.1094V84.2056L16.3727 83.4888L19.9536 80.3936C20.0148 80.3436 20.0644 80.3316 20.1042 80.3316L20.1211 80.3316L20.1326 80.3317C20.1331 80.3317 20.1336 80.3318 20.134 80.3318L20.1355 80.3321L20.147 80.3345C20.2119 80.348 20.2806 80.391 20.334 80.4896L20.334 80.4896L20.3354 80.4923L24.1751 87.4848L24.4387 87.9648L24.8936 87.6601L27.4264 85.9637L27.808 85.7081L27.5868 85.3056L23.9113 78.6178C23.8495 78.4989 23.8338 78.3442 23.8798 78.2045C23.9319 78.0613 24.0266 77.9884 24.0807 77.9716Z" fill="#FEFEFE" stroke="#333333"/>
<path d="M211.604 84.9912L211.604 84.9912L211.609 84.9897L215.755 83.6607L216.682 83.3635L215.902 82.7813L203.868 73.8052L203.067 73.2076V74.2071V90.129V91.2251L203.896 90.5084L207.477 87.4132C207.538 87.3632 207.588 87.3512 207.628 87.3512L207.644 87.3512L207.656 87.3513C207.656 87.3513 207.657 87.3513 207.657 87.3514L207.659 87.3517L207.67 87.3541C207.735 87.3676 207.804 87.4106 207.857 87.5092L207.857 87.5092L207.859 87.5119L211.698 94.5044L211.962 94.9844L212.417 94.6797L214.95 92.9833L215.331 92.7277L215.11 92.3252L211.435 85.6373C211.373 85.5185 211.357 85.3638 211.403 85.2241C211.455 85.0809 211.55 85.0079 211.604 84.9912Z" fill="#FEFEFE" stroke="#333333"/>
<path d="M296.842 76.9688L296.842 76.9688L296.847 76.9673L300.993 75.6383L301.92 75.3411L301.139 74.7589L289.106 65.7828L288.305 65.1852V66.1847V82.1066V83.2028L289.134 82.486L292.715 79.3908C292.776 79.3408 292.826 79.3288 292.865 79.3288L292.882 79.3288L292.894 79.3289C292.894 79.3289 292.895 79.329 292.895 79.329L292.897 79.3293L292.908 79.3317C292.973 79.3452 293.042 79.3882 293.095 79.4868L293.095 79.4868L293.097 79.4895L296.936 86.482L297.2 86.962L297.655 86.6573L300.188 84.9609L300.569 84.7053L300.348 84.3028L296.673 77.615C296.611 77.4961 296.595 77.3414 296.641 77.2017C296.693 77.0585 296.788 76.9856 296.842 76.9688Z" fill="#FEFEFE" stroke="#333333"/>
<path d="M94.2766 77.9716L94.2766 77.9716L94.2812 77.9701L98.4273 76.6411L99.3545 76.3439L98.5741 75.7617L86.5405 66.7856L85.7393 66.188V67.1875V83.1094V84.2056L86.5686 83.4888L90.1495 80.3936C90.2107 80.3436 90.2603 80.3316 90.3001 80.3316L90.317 80.3316L90.3285 80.3317C90.329 80.3317 90.3295 80.3318 90.3299 80.3318L90.3314 80.3321L90.3429 80.3345C90.4079 80.348 90.4765 80.391 90.5299 80.4896L90.5299 80.4896L90.5314 80.4923L94.371 87.4848L94.6346 87.9648L95.0895 87.6601L97.6223 85.9637L98.0039 85.7081L97.7827 85.3056L94.1072 78.6178C94.0454 78.4989 94.0297 78.3442 94.0757 78.2045C94.1278 78.0613 94.2226 77.9884 94.2766 77.9716Z" fill="#FEFEFE" stroke="#333333"/>
<path d="M208.582 16.0448H196.549C196.283 16.0448 196.028 15.9391 195.84 15.7511C195.651 15.563 195.546 15.3079 195.546 15.042C195.546 14.776 195.651 14.521 195.84 14.3329C196.028 14.1448 196.283 14.0392 196.549 14.0392H208.582C208.848 14.0392 209.103 14.1448 209.291 14.3329C209.479 14.521 209.585 14.776 209.585 15.042C209.585 15.3079 209.479 15.563 209.291 15.7511C209.103 15.9391 208.848 16.0448 208.582 16.0448Z" fill="#111111"/>
<path d="M208.582 63.1763H196.549C196.283 63.1763 196.028 63.0707 195.84 62.8826C195.651 62.6946 195.546 62.4395 195.546 62.1735C195.546 61.9076 195.651 61.6525 195.84 61.4644C196.028 61.2764 196.283 61.1707 196.549 61.1707H208.582C208.848 61.1707 209.103 61.2764 209.291 61.4644C209.479 61.6525 209.585 61.9076 209.585 62.1735C209.585 62.4395 209.479 62.6946 209.291 62.8826C209.103 63.0707 208.848 63.1763 208.582 63.1763Z" fill="#111111"/>
</svg>
