<svg width="115" height="179" viewBox="0 0 115 179" fill="none" xmlns="http://www.w3.org/2000/svg">
<path d="M86 14.25C86 13.388 86.3424 12.5614 86.9519 11.9519C87.5614 11.3424 88.388 11 89.25 11H98.75C99.612 11 100.439 11.3424 101.048 11.9519C101.658 12.5614 102 13.388 102 14.25V27.75C102 28.1768 101.916 28.5994 101.753 28.9937C101.589 29.388 101.35 29.7463 101.048 30.0481C100.746 30.3499 100.388 30.5893 99.9937 30.7526C99.5994 30.9159 99.1768 31 98.75 31H89.25C88.8232 31 88.4006 30.9159 88.0063 30.7526C87.612 30.5893 87.2537 30.3499 86.9519 30.0481C86.6501 29.7463 86.4107 29.388 86.2474 28.9937C86.0841 28.5994 86 28.1768 86 27.75V14.25ZM91 14C90.4696 14 89.9609 14.2107 89.5858 14.5858C89.2107 14.9609 89 15.4696 89 16V17C89 17.5304 89.2107 18.0391 89.5858 18.4142C89.9609 18.7893 90.4696 19 91 19H97C97.5304 19 98.0391 18.7893 98.4142 18.4142C98.7893 18.0391 99 17.5304 99 17V16C99 15.4696 98.7893 14.9609 98.4142 14.5858C98.0391 14.2107 97.5304 14 97 14H91ZM91.5 22.25C91.5 21.9185 91.3683 21.6005 91.1339 21.3661C90.8995 21.1317 90.5815 21 90.25 21C89.9185 21 89.6005 21.1317 89.3661 21.3661C89.1317 21.6005 89 21.9185 89 22.25C89 22.5815 89.1317 22.8995 89.3661 23.1339C89.6005 23.3683 89.9185 23.5 90.25 23.5C90.5815 23.5 90.8995 23.3683 91.1339 23.1339C91.3683 22.8995 91.5 22.5815 91.5 22.25ZM90.25 27.5C90.5815 27.5 90.8995 27.3683 91.1339 27.1339C91.3683 26.8995 91.5 26.5815 91.5 26.25C91.5 25.9185 91.3683 25.6005 91.1339 25.3661C90.8995 25.1317 90.5815 25 90.25 25C89.9185 25 89.6005 25.1317 89.3661 25.3661C89.1317 25.6005 89 25.9185 89 26.25C89 26.5815 89.1317 26.8995 89.3661 27.1339C89.6005 27.3683 89.9185 27.5 90.25 27.5ZM99 22.25C99 21.9185 98.8683 21.6005 98.6339 21.3661C98.3995 21.1317 98.0815 21 97.75 21C97.4185 21 97.1005 21.1317 96.8661 21.3661C96.6317 21.6005 96.5 21.9185 96.5 22.25C96.5 22.5815 96.6317 22.8995 96.8661 23.1339C97.1005 23.3683 97.4185 23.5 97.75 23.5C98.0815 23.5 98.3995 23.3683 98.6339 23.1339C98.8683 22.8995 99 22.5815 99 22.25ZM97.75 27.5C98.0815 27.5 98.3995 27.3683 98.6339 27.1339C98.8683 26.8995 99 26.5815 99 26.25C99 25.9185 98.8683 25.6005 98.6339 25.3661C98.3995 25.1317 98.0815 25 97.75 25C97.4185 25 97.1005 25.1317 96.8661 25.3661C96.6317 25.6005 96.5 25.9185 96.5 26.25C96.5 26.5815 96.6317 26.8995 96.8661 27.1339C97.1005 27.3683 97.4185 27.5 97.75 27.5ZM95.25 22.25C95.25 21.9185 95.1183 21.6005 94.8839 21.3661C94.6495 21.1317 94.3315 21 94 21C93.6685 21 93.3505 21.1317 93.1161 21.3661C92.8817 21.6005 92.75 21.9185 92.75 22.25C92.75 22.5815 92.8817 22.8995 93.1161 23.1339C93.3505 23.3683 93.6685 23.5 94 23.5C94.3315 23.5 94.6495 23.3683 94.8839 23.1339C95.1183 22.8995 95.25 22.5815 95.25 22.25ZM94 27.5C94.3315 27.5 94.6495 27.3683 94.8839 27.1339C95.1183 26.8995 95.25 26.5815 95.25 26.25C95.25 25.9185 95.1183 25.6005 94.8839 25.3661C94.6495 25.1317 94.3315 25 94 25C93.6685 25 93.3505 25.1317 93.1161 25.3661C92.8817 25.6005 92.75 25.9185 92.75 26.25C92.75 26.5815 92.8817 26.8995 93.1161 27.1339C93.3505 27.3683 93.6685 27.5 94 27.5Z" fill="#418EE7"/>
<rect x="74" y="1" width="40" height="40" rx="7" stroke="black" stroke-opacity="0.2" stroke-width="2"/>
<rect x="1" y="138" width="113" height="40" rx="10" stroke="black" stroke-opacity="0.2" stroke-width="2"/>
</svg>
