<svg width="218" height="96" viewBox="0 0 218 96" fill="none" xmlns="http://www.w3.org/2000/svg">
<rect y="40.1558" width="32.1246" height="32.1246" rx="16" fill="#989A9C" fill-opacity="0.3"/>
<path d="M15.1467 63.5412L8.52095 56.9155C8.42056 56.8151 8.34928 56.7064 8.30712 56.5892C8.26562 56.4721 8.24488 56.3466 8.24488 56.2128C8.24488 56.0789 8.26562 55.9534 8.30712 55.8363C8.34928 55.7192 8.42056 55.6104 8.52095 55.5101L15.1467 48.8844C15.3307 48.7003 15.5606 48.6039 15.8363 48.5952C16.1127 48.5872 16.3513 48.6836 16.5521 48.8844C16.7529 49.0684 16.8576 49.2983 16.8663 49.574C16.8744 49.8504 16.778 50.089 16.5772 50.2898L11.6581 55.2089H22.8766C23.1611 55.2089 23.3997 55.3049 23.5924 55.497C23.7845 55.6898 23.8805 55.9283 23.8805 56.2128C23.8805 56.4972 23.7845 56.7355 23.5924 56.9276C23.3997 57.1203 23.1611 57.2167 22.8766 57.2167H11.6581L16.5772 62.1358C16.7612 62.3198 16.8576 62.554 16.8663 62.8385C16.8744 63.1229 16.778 63.3572 16.5772 63.5412C16.3932 63.742 16.1589 63.8424 15.8745 63.8424C15.59 63.8424 15.3474 63.742 15.1467 63.5412Z" fill="#111111"/>
<path d="M15.1467 23.3854L8.52095 16.7597C8.42056 16.6593 8.34928 16.5506 8.30712 16.4335C8.26562 16.3163 8.24488 16.1909 8.24488 16.057C8.24488 15.9232 8.26562 15.7977 8.30712 15.6805C8.34928 15.5634 8.42056 15.4547 8.52095 15.3543L15.1467 8.72857C15.3307 8.54453 15.5606 8.44815 15.8363 8.43945C16.1127 8.43142 16.3513 8.52779 16.5521 8.72857C16.7529 8.91262 16.8576 9.14251 16.8663 9.41825C16.8744 9.69465 16.778 9.93325 16.5772 10.134L11.6581 15.0531H22.8766C23.1611 15.0531 23.3997 15.1491 23.5924 15.3412C23.7845 15.534 23.8805 15.7726 23.8805 16.057C23.8805 16.3414 23.7845 16.5797 23.5924 16.7718C23.3997 16.9645 23.1611 17.0609 22.8766 17.0609H11.6581L16.5772 21.98C16.7612 22.164 16.8576 22.3983 16.8663 22.6827C16.8744 22.9671 16.778 23.2014 16.5772 23.3854C16.3932 23.5862 16.1589 23.6866 15.8745 23.6866C15.59 23.6866 15.3474 23.5862 15.1467 23.3854Z" fill="#111111"/>
<rect x="60.2337" y="40.1558" width="32.1246" height="32.1246" rx="16" fill="#989A9C" fill-opacity="0.3"/>
<path d="M74.6145 48.5052C75.0421 46.7423 77.5498 46.7423 77.9775 48.5052C78.0417 48.77 78.1675 49.0159 78.3446 49.223C78.5218 49.43 78.7454 49.5922 78.9971 49.6965C79.2489 49.8008 79.5217 49.8442 79.7933 49.8232C80.065 49.8021 80.3279 49.7172 80.5605 49.5753C82.1095 48.6317 83.8834 50.4045 82.9398 51.9546C82.7981 52.1871 82.7133 52.4498 82.6923 52.7213C82.6713 52.9928 82.7146 53.2654 82.8188 53.517C82.923 53.7686 83.0851 53.992 83.2918 54.1692C83.4986 54.3464 83.7443 54.4722 84.0089 54.5366C85.7717 54.9642 85.7717 57.472 84.0089 57.8996C83.7441 57.9638 83.4981 58.0896 83.2911 58.2667C83.0841 58.4439 82.9218 58.6675 82.8175 58.9192C82.7132 59.171 82.6699 59.4438 82.6909 59.7154C82.712 59.9871 82.7969 60.25 82.9388 60.4826C83.8824 62.0316 82.1095 63.8055 80.5595 62.8619C80.327 62.7202 80.0643 62.6354 79.7928 62.6144C79.5213 62.5934 79.2487 62.6367 78.9971 62.7409C78.7455 62.8451 78.522 63.0072 78.3449 63.214C78.1677 63.4207 78.0418 63.6664 77.9775 63.931C77.5498 65.6939 75.0421 65.6939 74.6145 63.931C74.5503 63.6662 74.4245 63.4203 74.2473 63.2132C74.0701 63.0062 73.8466 62.8439 73.5948 62.7396C73.3431 62.6353 73.0703 62.592 72.7986 62.613C72.527 62.6341 72.2641 62.719 72.0314 62.8609C70.4824 63.8045 68.7085 62.0316 69.6522 60.4816C69.7939 60.2491 69.8786 59.9864 69.8997 59.7149C69.9207 59.4434 69.8773 59.1708 69.7731 58.9192C69.669 58.6676 69.5069 58.4441 69.3001 58.267C69.0933 58.0898 68.8476 57.964 68.5831 57.8996C66.8202 57.472 66.8202 54.9642 68.5831 54.5366C68.8479 54.4724 69.0938 54.3466 69.3008 54.1694C69.5079 53.9923 69.6701 53.7687 69.7744 53.517C69.8787 53.2652 69.9221 52.9924 69.901 52.7207C69.88 52.4491 69.7951 52.1862 69.6532 51.9535C68.7095 50.4045 70.4824 48.6307 72.0324 49.5743C73.0363 50.1847 74.3374 49.6446 74.6145 48.5052Z" stroke="#111111" stroke-width="2" stroke-linecap="round" stroke-linejoin="round"/>
<path d="M80.3116 56.2181C80.3116 58.4358 78.5137 60.2337 76.296 60.2337C74.0782 60.2337 72.2804 58.4358 72.2804 56.2181C72.2804 54.0003 74.0782 52.2025 76.296 52.2025C78.5137 52.2025 80.3116 54.0003 80.3116 56.2181ZM74.2785 56.2181C74.2785 57.3323 75.1818 58.2356 76.296 58.2356C77.4102 58.2356 78.3135 57.3323 78.3135 56.2181C78.3135 55.1039 77.4102 54.2006 76.296 54.2006C75.1818 54.2006 74.2785 55.1039 74.2785 56.2181Z" fill="#111111"/>
<path d="M74.6145 8.34939C75.0421 6.58655 77.5498 6.58655 77.9775 8.34939C78.0417 8.61422 78.1675 8.86015 78.3446 9.06717C78.5218 9.2742 78.7454 9.43646 78.9971 9.54076C79.2489 9.64505 79.5217 9.68844 79.7933 9.66737C80.065 9.64631 80.3279 9.56139 80.5605 9.41954C82.1095 8.47588 83.8834 10.2488 82.9398 11.7988C82.7981 12.0313 82.7133 12.294 82.6923 12.5655C82.6713 12.837 82.7146 13.1096 82.8188 13.3612C82.923 13.6128 83.0851 13.8363 83.2918 14.0134C83.4986 14.1906 83.7443 14.3164 84.0089 14.3808C85.7717 14.8084 85.7717 17.3162 84.0089 17.7438C83.7441 17.808 83.4981 17.9338 83.2911 18.111C83.0841 18.2881 82.9218 18.5117 82.8175 18.7634C82.7132 19.0152 82.6699 19.288 82.6909 19.5597C82.712 19.8313 82.7969 20.0942 82.9388 20.3269C83.8824 21.8759 82.1095 23.6497 80.5595 22.7061C80.327 22.5644 80.0643 22.4797 79.7928 22.4586C79.5213 22.4376 79.2487 22.481 78.9971 22.5851C78.7455 22.6893 78.522 22.8514 78.3449 23.0582C78.1677 23.265 78.0418 23.5106 77.9775 23.7752C77.5498 25.5381 75.0421 25.5381 74.6145 23.7752C74.5503 23.5104 74.4245 23.2645 74.2473 23.0574C74.0701 22.8504 73.8466 22.6882 73.5948 22.5839C73.3431 22.4796 73.0703 22.4362 72.7986 22.4573C72.527 22.4783 72.2641 22.5632 72.0314 22.7051C70.4824 23.6487 68.7085 21.8759 69.6522 20.3259C69.7939 20.0933 69.8786 19.8306 69.8997 19.5591C69.9207 19.2876 69.8773 19.015 69.7731 18.7634C69.669 18.5118 69.5069 18.2884 69.3001 18.1112C69.0933 17.934 68.8476 17.8082 68.5831 17.7438C66.8202 17.3162 66.8202 14.8084 68.5831 14.3808C68.8479 14.3166 69.0938 14.1908 69.3008 14.0137C69.5079 13.8365 69.6701 13.6129 69.7744 13.3612C69.8787 13.1094 69.9221 12.8366 69.901 12.565C69.88 12.2933 69.7951 12.0304 69.6532 11.7978C68.7095 10.2488 70.4824 8.47488 72.0324 9.41854C73.0363 10.0289 74.3374 9.48881 74.6145 8.34939Z" stroke="#111111" stroke-width="2" stroke-linecap="round" stroke-linejoin="round"/>
<path d="M80.3116 16.0623C80.3116 18.2801 78.5137 20.0779 76.296 20.0779C74.0782 20.0779 72.2804 18.2801 72.2804 16.0623C72.2804 13.8446 74.0782 12.0467 76.296 12.0467C78.5137 12.0467 80.3116 13.8446 80.3116 16.0623ZM74.2785 16.0623C74.2785 17.1765 75.1818 18.0798 76.296 18.0798C77.4102 18.0798 78.3135 17.1765 78.3135 16.0623C78.3135 14.9481 77.4102 14.0448 76.296 14.0448C75.1818 14.0448 74.2785 14.9481 74.2785 16.0623Z" fill="#111111"/>
<rect x="137.534" y="47.183" width="30.1168" height="30.1168" rx="8" fill="#CECFD0"/>
<rect x="138.034" y="47.683" width="29.1168" height="29.1168" rx="7.5" stroke="#848484" stroke-opacity="0.3"/>
<rect x="187.728" y="47.183" width="30.1168" height="30.1168" rx="8" fill="#CECFD0"/>
<rect x="188.228" y="47.683" width="29.1168" height="29.1168" rx="7.5" stroke="#848484" stroke-opacity="0.3"/>
<rect x="137.534" width="30.1168" height="30.1168" rx="8" fill="#FEFEFE"/>
<rect x="138.034" y="0.5" width="29.1168" height="29.1168" rx="7.5" stroke="#848484" stroke-opacity="0.3"/>
<path d="M158.615 16.0623H153.596V21.0818C153.596 21.348 153.49 21.6034 153.302 21.7916C153.114 21.9799 152.858 22.0857 152.592 22.0857C152.326 22.0857 152.07 21.9799 151.882 21.7916C151.694 21.6034 151.588 21.348 151.588 21.0818V16.0623H146.569C146.302 16.0623 146.047 15.9565 145.859 15.7683C145.67 15.58 145.565 15.3247 145.565 15.0584C145.565 14.7922 145.67 14.5368 145.859 14.3486C146.047 14.1603 146.302 14.0545 146.569 14.0545H151.588V9.03505C151.588 8.7688 151.694 8.51346 151.882 8.32519C152.07 8.13692 152.326 8.03116 152.592 8.03116C152.858 8.03116 153.114 8.13692 153.302 8.32519C153.49 8.51346 153.596 8.7688 153.596 9.03505V14.0545H158.615C158.882 14.0545 159.137 14.1603 159.325 14.3486C159.513 14.5368 159.619 14.7922 159.619 15.0584C159.619 15.3247 159.513 15.58 159.325 15.7683C159.137 15.9565 158.882 16.0623 158.615 16.0623Z" fill="#111111"/>
<path d="M158.615 63.2454H153.596V68.2648C153.596 68.5311 153.49 68.7864 153.302 68.9747C153.114 69.163 152.858 69.2687 152.592 69.2687C152.326 69.2687 152.07 69.163 151.882 68.9747C151.694 68.7864 151.588 68.5311 151.588 68.2648V63.2454H146.569C146.302 63.2454 146.047 63.1396 145.859 62.9513C145.67 62.7631 145.565 62.5077 145.565 62.2415C145.565 61.9752 145.67 61.7199 145.859 61.5316C146.047 61.3433 146.302 61.2376 146.569 61.2376H151.588V56.2181C151.588 55.9518 151.694 55.6965 151.882 55.5082C152.07 55.32 152.326 55.2142 152.592 55.2142C152.858 55.2142 153.114 55.32 153.302 55.5082C153.49 55.6965 153.596 55.9518 153.596 56.2181V61.2376H158.615C158.882 61.2376 159.137 61.3433 159.325 61.5316C159.513 61.7199 159.619 61.9752 159.619 62.2415C159.619 62.5077 159.513 62.7631 159.325 62.9513C159.137 63.1396 158.882 63.2454 158.615 63.2454Z" fill="#111111"/>
<path d="M169.672 85.0841L169.672 85.0841L169.676 85.0826L173.827 83.7521L174.755 83.4546L173.974 82.8718L161.927 73.8858L161.125 73.2876V74.2882V90.2275V91.3248L161.955 90.6072L165.54 87.5087C165.601 87.4586 165.651 87.4466 165.691 87.4466L165.708 87.4467L165.719 87.4468C165.72 87.4468 165.72 87.4468 165.721 87.4468L165.722 87.4472L165.734 87.4496C165.799 87.463 165.867 87.5061 165.921 87.6048L165.921 87.6048L165.922 87.6075L169.766 94.6077L170.03 95.0882L170.486 94.7831L173.021 93.0849L173.403 92.829L173.182 92.4261L169.502 85.7309C169.44 85.6119 169.425 85.457 169.471 85.3172C169.523 85.1738 169.618 85.1008 169.672 85.0841Z" fill="#FEFEFE" stroke="#333333"/>
<path d="M211.835 85.0841L211.835 85.0841L211.84 85.0826L215.991 83.7521L216.919 83.4546L216.137 82.8718L204.091 73.8858L203.289 73.2876V74.2882V90.2275V91.3248L204.119 90.6072L207.704 87.5087C207.765 87.4586 207.815 87.4466 207.854 87.4466L207.871 87.4467L207.883 87.4468C207.883 87.4468 207.884 87.4468 207.884 87.4468L207.886 87.4472L207.897 87.4496C207.962 87.463 208.031 87.5061 208.084 87.6048L208.084 87.6048L208.086 87.6075L211.93 94.6077L212.194 95.0882L212.649 94.7831L215.185 93.0849L215.567 92.829L215.345 92.4261L211.666 85.7309C211.604 85.6119 211.588 85.457 211.634 85.3172C211.686 85.1738 211.781 85.1008 211.835 85.0841Z" fill="#FEFEFE" stroke="#333333"/>
<path d="M94.3796 78.0568L94.3796 78.0568L94.3842 78.0553L98.5349 76.7248L99.4631 76.4273L98.6818 75.8445L86.635 66.8586L85.833 66.2603V67.2609V83.2002V84.2975L86.6632 83.58L90.248 80.4814C90.3093 80.4314 90.3589 80.4194 90.3987 80.4194L90.4157 80.4194L90.4272 80.4195C90.4277 80.4195 90.4282 80.4195 90.4286 80.4195L90.4301 80.4199L90.4416 80.4223C90.5066 80.4358 90.5754 80.4788 90.6288 80.5775L90.6288 80.5775L90.6303 80.5802L94.4741 87.5804L94.738 88.0609L95.1934 87.7559L97.729 86.0576L98.111 85.8018L97.8895 85.3988L94.2101 78.7036C94.1482 78.5847 94.1325 78.4298 94.1785 78.2899C94.2306 78.1466 94.3255 78.0736 94.3796 78.0568Z" fill="#FEFEFE" stroke="#333333"/>
<rect x="187.728" width="30.1168" height="30.1168" rx="8" fill="#FEFEFE"/>
<rect x="188.228" y="0.5" width="29.1168" height="29.1168" rx="7.5" stroke="#848484" stroke-opacity="0.3"/>
<path d="M208.81 16.0623H196.763C196.497 16.0623 196.242 15.9565 196.053 15.7683C195.865 15.58 195.759 15.3247 195.759 15.0584C195.759 14.7922 195.865 14.5368 196.053 14.3486C196.242 14.1603 196.497 14.0545 196.763 14.0545H208.81C209.076 14.0545 209.332 14.1603 209.52 14.3486C209.708 14.5368 209.814 14.7922 209.814 15.0584C209.814 15.3247 209.708 15.58 209.52 15.7683C209.332 15.9565 209.076 16.0623 208.81 16.0623Z" fill="#111111"/>
<path d="M208.81 63.2454H196.763C196.497 63.2454 196.242 63.1396 196.053 62.9513C195.865 62.7631 195.759 62.5077 195.759 62.2415C195.759 61.9752 195.865 61.7199 196.053 61.5316C196.242 61.3433 196.497 61.2376 196.763 61.2376H208.81C209.076 61.2376 209.332 61.3433 209.52 61.5316C209.708 61.7199 209.814 61.9752 209.814 62.2415C209.814 62.5077 209.708 62.7631 209.52 62.9513C209.332 63.1396 209.076 63.2454 208.81 63.2454Z" fill="#111111"/>
</svg>
