<svg width="240" height="235" viewBox="0 0 240 235" fill="none" xmlns="http://www.w3.org/2000/svg">
<circle cx="222" cy="108" r="9" fill="url(#paint0_linear_55_15070)"/>
<circle cx="111" cy="147" r="9" fill="url(#paint1_linear_55_15070)"/>
<circle cx="9" cy="65" r="9" fill="url(#paint2_linear_55_15070)"/>
<circle cx="20" cy="148" r="9" fill="url(#paint3_linear_55_15070)"/>
<circle cx="213" cy="24" r="9" fill="url(#paint4_linear_55_15070)"/>
<circle cx="149" cy="92" r="9" fill="url(#paint5_linear_55_15070)"/>
<circle cx="182" cy="165" r="9" fill="url(#paint6_linear_55_15070)"/>
<circle cx="131" cy="217" r="9" fill="url(#paint7_linear_55_15070)"/>
<circle cx="60" cy="183" r="9" fill="url(#paint8_linear_55_15070)"/>
<circle cx="18" cy="226" r="9" fill="url(#paint9_linear_55_15070)"/>
<circle cx="231" cy="215" r="9" fill="url(#paint10_linear_55_15070)"/>
<circle cx="158" cy="12" r="9" fill="url(#paint11_linear_55_15070)"/>
<circle cx="69" cy="92" r="9" fill="url(#paint12_linear_55_15070)"/>
<circle cx="93" cy="33" r="9" fill="url(#paint13_linear_55_15070)"/>
<circle cx="36" cy="9" r="9" fill="url(#paint14_linear_55_15070)"/>
<defs>
<linearGradient id="paint0_linear_55_15070" x1="213" y1="108" x2="231" y2="108" gradientUnits="userSpaceOnUse">
<stop stop-color="#9643FF"/>
<stop offset="1" stop-color="#FD5FD1"/>
</linearGradient>
<linearGradient id="paint1_linear_55_15070" x1="102" y1="147" x2="120" y2="147" gradientUnits="userSpaceOnUse">
<stop stop-color="#9643FF"/>
<stop offset="1" stop-color="#FD5FD1"/>
</linearGradient>
<linearGradient id="paint2_linear_55_15070" x1="-6.70552e-08" y1="65" x2="18" y2="65" gradientUnits="userSpaceOnUse">
<stop stop-color="#9643FF"/>
<stop offset="1" stop-color="#FD5FD1"/>
</linearGradient>
<linearGradient id="paint3_linear_55_15070" x1="11" y1="148" x2="29" y2="148" gradientUnits="userSpaceOnUse">
<stop stop-color="#9643FF"/>
<stop offset="1" stop-color="#FD5FD1"/>
</linearGradient>
<linearGradient id="paint4_linear_55_15070" x1="204" y1="24" x2="222" y2="24" gradientUnits="userSpaceOnUse">
<stop stop-color="#9643FF"/>
<stop offset="1" stop-color="#FD5FD1"/>
</linearGradient>
<linearGradient id="paint5_linear_55_15070" x1="140" y1="92" x2="158" y2="92" gradientUnits="userSpaceOnUse">
<stop stop-color="#9643FF"/>
<stop offset="1" stop-color="#FD5FD1"/>
</linearGradient>
<linearGradient id="paint6_linear_55_15070" x1="173" y1="165" x2="191" y2="165" gradientUnits="userSpaceOnUse">
<stop stop-color="#9643FF"/>
<stop offset="1" stop-color="#FD5FD1"/>
</linearGradient>
<linearGradient id="paint7_linear_55_15070" x1="122" y1="217" x2="140" y2="217" gradientUnits="userSpaceOnUse">
<stop stop-color="#9643FF"/>
<stop offset="1" stop-color="#FD5FD1"/>
</linearGradient>
<linearGradient id="paint8_linear_55_15070" x1="51" y1="183" x2="69" y2="183" gradientUnits="userSpaceOnUse">
<stop stop-color="#9643FF"/>
<stop offset="1" stop-color="#FD5FD1"/>
</linearGradient>
<linearGradient id="paint9_linear_55_15070" x1="9" y1="226" x2="27" y2="226" gradientUnits="userSpaceOnUse">
<stop stop-color="#9643FF"/>
<stop offset="1" stop-color="#FD5FD1"/>
</linearGradient>
<linearGradient id="paint10_linear_55_15070" x1="222" y1="215" x2="240" y2="215" gradientUnits="userSpaceOnUse">
<stop stop-color="#9643FF"/>
<stop offset="1" stop-color="#FD5FD1"/>
</linearGradient>
<linearGradient id="paint11_linear_55_15070" x1="149" y1="12" x2="167" y2="12" gradientUnits="userSpaceOnUse">
<stop stop-color="#9643FF"/>
<stop offset="1" stop-color="#FD5FD1"/>
</linearGradient>
<linearGradient id="paint12_linear_55_15070" x1="60" y1="92" x2="78" y2="92" gradientUnits="userSpaceOnUse">
<stop stop-color="#9643FF"/>
<stop offset="1" stop-color="#FD5FD1"/>
</linearGradient>
<linearGradient id="paint13_linear_55_15070" x1="84" y1="33" x2="102" y2="33" gradientUnits="userSpaceOnUse">
<stop stop-color="#9643FF"/>
<stop offset="1" stop-color="#FD5FD1"/>
</linearGradient>
<linearGradient id="paint14_linear_55_15070" x1="27" y1="9.00002" x2="45" y2="9.00002" gradientUnits="userSpaceOnUse">
<stop stop-color="#9643FF"/>
<stop offset="1" stop-color="#FD5FD1"/>
</linearGradient>
</defs>
</svg>
