<svg width="113" height="40" viewBox="0 0 113 40" fill="none" xmlns="http://www.w3.org/2000/svg">
<rect width="50" height="40" rx="8" fill="#FEFEFE"/>
<rect x="1" y="1" width="48" height="38" rx="7" stroke="#848484" stroke-opacity="0.3" stroke-width="2"/>
<path d="M32.8333 21.6667H26.1667V28.3333C26.1667 28.687 26.0262 29.0261 25.7761 29.2761C25.5261 29.5262 25.187 29.6667 24.8333 29.6667C24.4797 29.6667 24.1406 29.5262 23.8905 29.2761C23.6405 29.0261 23.5 28.687 23.5 28.3333V21.6667H16.8333C16.4797 21.6667 16.1406 21.5262 15.8905 21.2761C15.6405 21.0261 15.5 20.687 15.5 20.3333C15.5 19.9797 15.6405 19.6406 15.8905 19.3905C16.1406 19.1405 16.4797 19 16.8333 19H23.5V12.3333C23.5 11.9797 23.6405 11.6406 23.8905 11.3905C24.1406 11.1405 24.4797 11 24.8333 11C25.187 11 25.5261 11.1405 25.7761 11.3905C26.0262 11.6406 26.1667 11.9797 26.1667 12.3333V19H32.8333C33.187 19 33.5261 19.1405 33.7761 19.3905C34.0262 19.6406 34.1667 19.9797 34.1667 20.3333C34.1667 20.687 34.0262 21.0261 33.7761 21.2761C33.5261 21.5262 33.187 21.6667 32.8333 21.6667Z" fill="#111111"/>
<rect x="63" width="50" height="40" rx="8" fill="#FEFEFE"/>
<rect x="64" y="1" width="48" height="38" rx="7" stroke="#848484" stroke-opacity="0.3" stroke-width="2"/>
<path d="M98.4167 21.3332H78.4167C77.9746 21.3332 77.5507 21.1927 77.2382 20.9426C76.9256 20.6926 76.75 20.3535 76.75 19.9998C76.75 19.6462 76.9256 19.3071 77.2382 19.057C77.5507 18.807 77.9746 18.6665 78.4167 18.6665H98.4167C98.8587 18.6665 99.2826 18.807 99.5952 19.057C99.9077 19.3071 100.083 19.6462 100.083 19.9998C100.083 20.3535 99.9077 20.6926 99.5952 20.9426C99.2826 21.1927 98.8587 21.3332 98.4167 21.3332Z" fill="#111111"/>
</svg>
